SplineFontDB: 3.0
FontName: Muli-Demi-Bold
FullName: Muli Demi
FamilyName: Muli
Weight: Demi
Copyright: 2013 (c) vernon adams
Version: x
ItalicAngle: 0
UnderlinePosition: 0
UnderlineWidth: 0
Ascent: 1638
Descent: 410
UFOAscent: 1633
UFODescent: -492
LayerCount: 2
Layer: 0 0 "Back"  1
Layer: 1 0 "Fore"  0
FSType: 0
OS2Version: 0
OS2_WeightWidthSlopeOnly: 0
OS2_UseTypoMetrics: 1
CreationTime: 1363067543
ModificationTime: 1363067677
PfmFamily: 33
TTFWeight: 600
TTFWidth: 5
LineGap: 0
VLineGap: 0
OS2TypoAscent: 1978
OS2TypoAOffset: 0
OS2TypoDescent: -679
OS2TypoDOffset: 0
OS2TypoLinegap: 0
OS2WinAscent: 1978
OS2WinAOffset: 0
OS2WinDescent: 679
OS2WinDOffset: 0
HheadAscent: 1978
HheadAOffset: 0
HheadDescent: -679
HheadDOffset: 0
OS2Vendor: 'newt'
MarkAttachClasses: 1
DEI: 91125
LangName: 1033 "" "" "" "" "" "" "" "" "" "" "" "" "" "Copyright (c) 2013, vernon adams (<URL|email>),+AAoA-with Reserved Font Name Muli.+AAoACgAA-This Font Software is licensed under the SIL Open Font License, Version 1.1.+AAoA-This license is copied below, and is also available with a FAQ at:+AAoA-http://scripts.sil.org/OFL+AAoA" "http://scripts.sil.org/OFL" 
Encoding: UnicodeBmp
UnicodeInterp: none
NameList: AGL For New Fonts
DisplaySize: -48
AntiAlias: 1
FitToEm: 1
WinInfo: 54 18 11
BeginPrivate: 0
EndPrivate
TeXData: 1 0 0 306688 153344 102229 525312 -1048576 102229 783286 444596 497025 792723 393216 433062 380633 303038 157286 324010 404750 52429 2506097 1059062 262144
BeginChars: 65538 419

StartChar: A
Encoding: 65 65 0
Width: 1423
VWidth: 0
Flags: W
LayerCount: 2
Fore
SplineSet
474.31 567.83 m 1
 934.88 567.83 l 1
 795.28 965.43 l 1
 706.1 1218.27 l 1
 615.91 965.1 l 1
 474.31 567.83 l 1
20.61 0 m 1
 596.67 1456 l 1
 823.21 1456 l 1
 1402.95 0 l 1
 1160.32 0 l 1
 1014.34 372.25 l 1
 401.53 372.25 l 1
 258.22 0 l 1
 20.61 0 l 1
EndSplineSet
EndChar

StartChar: AE
Encoding: 198 198 1
Width: 2128
VWidth: 0
Flags: W
LayerCount: 2
Fore
SplineSet
22.64 0 m 1
 869 1456 l 1
 1922.98 1456 l 1
 1922.98 1265.1 l 1
 1247.77 1265.1 l 1
 1285.08 839.43 l 1
 1904.09 839.43 l 1
 1904.09 655.19 l 1
 1306.13 655.19 l 1
 1349.1 190.24 l 1
 1948.65 190.24 l 1
 1948.65 0 l 1
 1131.11 0 l 1
 1098.8 381.16 l 1
 499.24 381.16 l 1
 282.34 0 l 1
 22.64 0 l 1
587.02 552.37 m 1
 1083.12 552.37 l 1
 1031.15 1265.1 l 1
 989.87 1265.1 l 1
 587.02 552.37 l 1
EndSplineSet
EndChar

StartChar: B
Encoding: 66 66 11
Width: 1355
VWidth: 0
Flags: W
LayerCount: 2
Fore
SplineSet
190.68 0 m 1
 190.68 1456 l 1
 573.48 1456 l 2
 834.08 1456 1172.13 1426.03 1172.13 1092.62 c 0
 1172.13 951.72 1104.24 828.12 947.34 773.35 c 1
 1137.94 733.63 1240.12 593.61 1240.12 410.37 c 0
 1240.12 189.07 1068.8 0 714.06 0 c 2
 190.68 0 l 1
410.92 187.53 m 1
 674.36 187.53 l 2
 889.91 187.53 1007.19 263.5 1007.19 418.06 c 0
 1007.19 606.95 906.98 663.57 654.78 663.57 c 2
 410.92 663.57 l 1
 410.92 187.53 l 1
409.58 844.41 m 1
 636.84 844.41 l 2
 792.31 844.41 941.2 891.05 941.2 1063.6 c 0
 941.2 1233.81 809 1268.47 603.38 1268.47 c 2
 409.58 1268.47 l 1
 409.58 844.41 l 1
EndSplineSet
EndChar

StartChar: C
Encoding: 67 67 12
Width: 1409
VWidth: 0
Flags: W
LayerCount: 2
Fore
SplineSet
829.04 -22 m 0
 456.33 -22 106.66 229.41 106.66 721.04 c 0
 106.66 1188.65 427.94 1482.67 815.33 1482.67 c 0
 987.62 1482.67 1146.34 1443.02 1286.76 1329.64 c 1
 1200.67 1178.8 l 1
 1079.57 1265.52 956.94 1295.13 834.34 1295.13 c 0
 536.36 1295.13 337.23 1046.12 337.23 722.72 c 0
 337.23 374.85 553.18 165.54 841.4 165.54 c 0
 975.69 165.54 1112.69 207.18 1249.03 311.55 c 1
 1322.44 136.38 l 1
 1173.39 23.98 1003.71 -22 829.04 -22 c 0
EndSplineSet
EndChar

StartChar: D
Encoding: 68 68 18
Width: 1544
VWidth: 0
Flags: W
LayerCount: 2
Fore
SplineSet
409.58 187.53 m 1
 636.44 187.53 l 2
 1017.56 187.53 1206.28 391.02 1206.28 731.05 c 0
 1206.28 1100.04 1004.76 1268.47 575.64 1268.47 c 2
 409.58 1268.47 l 1
 409.58 187.53 l 1
190.68 0 m 1
 190.68 1456 l 1
 553.3 1456 l 2
 1115.84 1456 1437.86 1233.05 1437.86 731.37 c 0
 1437.86 266.59 1151.84 0 623.44 0 c 2
 190.68 0 l 1
EndSplineSet
EndChar

StartChar: E
Encoding: 69 69 21
Width: 1204
VWidth: 0
Flags: W
LayerCount: 2
Fore
SplineSet
190.68 0 m 1
 190.68 1456 l 1
 1083.19 1456 l 1
 1083.19 1268.47 l 1
 409.58 1268.47 l 1
 409.58 839.43 l 1
 1045.86 839.43 l 1
 1045.86 651.23 l 1
 410.92 651.23 l 1
 410.92 187.53 l 1
 1112.52 187.53 l 1
 1112.52 0 l 1
 190.68 0 l 1
EndSplineSet
EndChar

StartChar: Eng
Encoding: 330 330 30
Width: 1592
VWidth: 0
Flags: W
LayerCount: 2
Fore
SplineSet
564.5 -395.92 m 1
 592.21 -225.09 l 1
 702.08195 -255.30161 804.30036 -273.82792 891.9366 -273.82792 c 0
 1070.54066831 -273.82792 1184.55655291 -216.545397723 1189.6760841 -17.7016993002 c 0
 1189.9330543 -14.7279753175 1190.14650394 70.5097833251 1190.32 73.61694 c 1
 503.02 1009.25 l 1
 397.52 1168.13 l 1
 397.52 0 l 1
 190.68 0 l 1
 190.68 1456 l 1
 427.55 1456 l 1
 1084.84 543.29 l 1
 1190.98 385.43 l 1
 1190.98 1456 l 1
 1401.51 1456 l 1
 1401.51 59.28 l 2
 1401.51 -282.09 1234.1699 -441.1094 898.22831 -441.1094 c 0
 801.21043 -441.1094 689.787 -426.22897 564.5 -395.92 c 1
EndSplineSet
EndChar

StartChar: Eth
Encoding: 208 208 32
Width: 1505
VWidth: 0
Flags: W
LayerCount: 2
Fore
SplineSet
19.4 795 m 1
 619.9 795 l 1
 619.9 660 l 1
 19.4 660 l 1
 19.4 795 l 1
EndSplineSet
Refer: 18 68 N 1 0 0 1 0 0 2
EndChar

StartChar: Euro
Encoding: 8364 8364 33
Width: 1190
VWidth: 0
Flags: W
LayerCount: 2
Fore
SplineSet
841.13 10.68 m 1
 926.22 10.68 1005.94 82.3 1078.3 131.21 c 1
 1077.97 131.21 1038.7 216.12 973.36 216.12 c 1
 798.32 178.6 686.98 215.99 622.48 292.22 c 1
 503.22 292.22 617.09 373.96 596.32 493.89 c 1
 938.93 539.43 l 1
 765.26 641.94 l 1
 765.26 641.94 401.46 680.55 401.79 684.84 c 1
 397.77 699.58 592.47 769.93 594.48 785.34 c 1
 969.58 830.88 l 1
 792.31 926.69 l 1
 807.49 995.66 478.59 1052.42 549.54 1052.42 c 1
 620.98 1165.65 717.27 1230.58 853.59 1195.27 c 1
 917.24 1195.27 1005.5 1233.52 1070.49 1189.3 c 1
 1043.1 1215.7 1038.28 1338.79 994.72 1338.79 c 1
 828.8 1401.1 685.38 1357.64 573.77 1256.33 c 1
 366.07 1256.33 197.5 1120.32 155.96 926.69 c 1
 70.98 881.15 l 1
 91.8 785.34 l 1
 91.47 777.75 173.54 749.04 173.87 742.44 c 1
 170.52 722.34 136.86 654.67 140.21 641.94 c 1
 72.64 596.4 l 1
 99.77 493.89 l 1
 113.3 388.29 259.85 316.68 367.76 316.68 c 1
 440.52 115.68 588.7 -11.43 841.13 10.68 c 1
EndSplineSet
EndChar

StartChar: F
Encoding: 70 70 34
Width: 1123
VWidth: 0
Flags: W
LayerCount: 2
Fore
SplineSet
190.68 0 m 1
 190.68 1456 l 1
 1051.86 1456 l 1
 1051.86 1268.47 l 1
 409.58 1268.47 l 1
 409.58 834.43 l 1
 1010.56 834.43 l 1
 1010.56 646.23 l 1
 409.58 646.23 l 1
 409.58 0 l 1
 190.68 0 l 1
EndSplineSet
EndChar

StartChar: G
Encoding: 71 71 35
Width: 1532
VWidth: 0
Flags: W
LayerCount: 2
Fore
SplineSet
847.03 -22.67 m 0
 361.67 -22.67 106.66 267 106.66 703.01 c 0
 106.66 1146.16 410.77 1482.67 867.07 1482.67 c 0
 1105.11 1482.67 1248.34 1412.82 1349.42 1337.34 c 1
 1261.33 1184.17 l 1
 1168.2 1249.37 1045.59 1295.13 870.72 1295.13 c 0
 538.93 1295.13 334.24 1037.33 334.24 714.67 c 0
 334.24 391.13 500.55 164.2 856.38 164.2 c 0
 951.29 164.2 1055.84 179.85 1143.13 210.14 c 1
 1143.13 590.57 l 1
 788.89 590.57 l 1
 788.89 777.77 l 1
 1364.04 777.77 l 1
 1364.04 85.68 l 1
 1190.31 6.66 1016.02 -22.67 847.03 -22.67 c 0
EndSplineSet
EndChar

StartChar: H
Encoding: 72 72 40
Width: 1572
VWidth: 0
Flags: W
LayerCount: 2
Fore
SplineSet
199.92 0 m 1
 199.92 1456 l 1
 418.82 1456 l 1
 418.82 839.78 l 1
 1152.48 839.78 l 1
 1152.48 1456 l 1
 1371.05 1456 l 1
 1371.05 0 l 1
 1155.16 0 l 1
 1155.16 653.23 l 1
 421.5 653.23 l 1
 421.5 0 l 1
 199.92 0 l 1
EndSplineSet
EndChar

StartChar: Hbar
Encoding: 294 294 41
Width: 1543
VWidth: 0
Flags: W
LayerCount: 2
Fore
SplineSet
92.34 1118.01 m 1
 92.01 1257.37 l 1
 1451.1 1257.37 l 1
 1451.1 1118.01 l 1
 92.34 1118.01 l 1
EndSplineSet
Refer: 40 72 N 1 0 0 1 0 0 2
EndChar

StartChar: I
Encoding: 73 73 43
Width: 584
VWidth: 0
Flags: W
LayerCount: 2
Fore
SplineSet
183.25 0 m 1
 183.25 1456 l 1
 402.15 1456 l 1
 402.15 0 l 1
 183.25 0 l 1
EndSplineSet
EndChar

StartChar: J
Encoding: 74 74 54
Width: 844
VWidth: 0
Flags: W
LayerCount: 2
Fore
SplineSet
285.22 -330.67 m 0
 188.3 -330.67 85.95 -305.39 5.94 -276.27 c 1
 41.01 -105.79 l 1
 105.29 -126.21 179.61 -145.15 251.14 -145.15 c 0
 396.52 -145.15 435.61 -50.84 435.61 115.96 c 2
 435.61 1456 l 1
 654.51 1456 l 1
 654.51 119.02 l 2
 654.51 -177.3 523.02 -330.67 285.22 -330.67 c 0
EndSplineSet
EndChar

StartChar: K
Encoding: 75 75 56
Width: 1314
VWidth: 0
Flags: W
LayerCount: 2
Fore
SplineSet
190.68 0 m 1
 190.68 1456 l 1
 409.58 1456 l 1
 409.58 808.41 l 1
 1007.33 1456 l 1
 1279.63 1456 l 1
 624.79 753.99 l 1
 1327.97 0 l 1
 1047.64 0 l 1
 410.92 674.51 l 1
 410.92 0 l 1
 190.68 0 l 1
EndSplineSet
EndChar

StartChar: L
Encoding: 76 76 57
Width: 1128
VWidth: 0
Flags: W
LayerCount: 2
Fore
SplineSet
190.68 0 m 1
 190.68 1456 l 1
 409.58 1456 l 1
 409.58 187.53 l 1
 1084.57 187.53 l 1
 1084.57 0 l 1
 190.68 0 l 1
EndSplineSet
EndChar

StartChar: Lslash
Encoding: 321 321 61
Width: 1146
VWidth: 0
Flags: W
LayerCount: 2
Fore
SplineSet
645.6 879.28 m 1
 31.08 450.14 l 1
 31.08 637.39 l 1
 645.6 1066.2 l 1
 645.6 879.28 l 1
EndSplineSet
Refer: 57 76 N 1 0 0 1 0 0 2
EndChar

StartChar: M
Encoding: 77 77 62
Width: 1939
VWidth: 0
Flags: W
LayerCount: 2
Fore
SplineSet
190.68 0 m 1
 190.68 1456 l 1
 452.92 1456 l 1
 872.45 506.73 l 1
 971.85 281.96 l 1
 1072.26 511.74 l 1
 1488.09 1456 l 1
 1748.34 1456 l 1
 1748.34 0 l 1
 1542.13 0 l 1
 1542.13 1099.6 l 1
 1463.66 926.34 l 1
 1050.94 0 l 1
 890.1 0 l 1
 481 916.4 l 1
 401.57 1097.17 l 1
 401.57 0 l 1
 190.68 0 l 1
EndSplineSet
EndChar

StartChar: N
Encoding: 78 78 63
Width: 1600
VWidth: 0
Flags: W
LayerCount: 2
Fore
SplineSet
190.68 0 m 1
 190.68 1456 l 1
 424.91 1456 l 1
 1095.85 473.62 l 1
 1201.99 315.76 l 1
 1201.99 1456 l 1
 1409.55 1456 l 1
 1409.55 0 l 1
 1174.65 0 l 1
 499.72 978.39 l 1
 394.22 1137.27 l 1
 394.22 0 l 1
 190.68 0 l 1
EndSplineSet
EndChar

StartChar: O
Encoding: 79 79 67
Width: 1646
VWidth: 0
Flags: W
LayerCount: 2
Fore
SplineSet
823.07 164.2 m 0
 1148.9 164.2 1301.25 385.05 1301.25 732.02 c 0
 1301.25 1062.36 1148.9 1295.8 825.75 1295.8 c 0
 506.56 1295.8 342.25 1062.7 342.25 732.02 c 0
 342.25 384.38 500.87 164.2 823.07 164.2 c 0
826.42 -22.67 m 0
 375.05 -22.67 106.66 272.68 106.66 732.02 c 0
 106.66 1174.38 373.72 1482.67 828.43 1482.67 c 0
 1267.13 1482.67 1539.5 1175.39 1539.5 732.02 c 0
 1539.5 274.01 1275.8 -22.67 826.42 -22.67 c 0
EndSplineSet
EndChar

StartChar: OE
Encoding: 338 338 68
Width: 2052
VWidth: 0
Flags: W
LayerCount: 2
Fore
SplineSet
810.72 -23.67 m 0
 401.23 -35.67 106.66 230.13 106.66 730.34 c 0
 106.66 1184.76 395.08 1477.59 785.16 1482.33 c 1
 991.82 1486.7 1088.69 1410.18 1108.82 1391.05 c 1
 1108.82 1456 l 1
 1930.58 1456 l 1
 1930.58 1268.47 l 1
 1327.72 1268.47 l 1
 1327.72 839.43 l 1
 1893.25 839.43 l 1
 1893.25 651.23 l 1
 1329.06 651.23 l 1
 1329.06 187.53 l 1
 1959.91 187.53 l 1
 1959.91 0 l 1
 1108.82 0 l 1
 1108.82 80.88 l 1
 1084.77 55.14 979.14 -19 810.72 -23.67 c 0
816.7 153.14 m 0
 1001.86 154.46 1083.73 229.24 1108.82 256.96 c 1
 1108.82 1202.92 l 1
 1056.86 1251.18 960.26 1304.18 794.24 1294.8 c 1
 532.67 1282.74 342.25 1082.17 342.25 725 c 0
 342.25 373.92 517.28 150.17 816.7 153.14 c 0
EndSplineSet
EndChar

StartChar: Omega
Encoding: 937 937 76
Width: 1603
VWidth: 0
Flags: W
LayerCount: 2
Fore
SplineSet
88.59 0 m 1
 54.81 176.86 l 1
 366.66 175.19 l 1
 202.12 316.2 95.24 546.24 95.24 799.45 c 0
 95.24 1208.11 392.91 1469.77 792.92 1469.77 c 0
 1207.93 1469.77 1469.61 1176.77 1469.61 791.43 c 0
 1469.61 532.56 1343.1 307.85 1191.85 175.19 c 1
 1246.79 175.19 1414.66 176.86 1466.92 176.86 c 1
 1449.88 0 l 1
 906.1 0 l 1
 900.76 149.14 l 1
 1096.72 282.79 1241.36 525.54 1241.36 777.45 c 0
 1241.36 1052.01 1089.44 1290.91 789.93 1290.91 c 0
 515.4 1290.91 324.49 1081.65 324.49 781.11 c 0
 324.49 529.2 460.8 278.78 659.42 149.14 c 1
 663.76 0 l 1
 88.59 0 l 1
EndSplineSet
EndChar

StartChar: Oslash
Encoding: 216 216 77
Width: 1663
VWidth: 0
Flags: W
LayerCount: 2
Fore
SplineSet
441.07 -125.68 m 1
 337.99 -74.34 l 1
 1210.4 1566.06 l 1
 1313.48 1514.39 l 1
 441.07 -125.68 l 1
EndSplineSet
Refer: 67 79 N 1 0 0 1 0 0 2
EndChar

StartChar: P
Encoding: 80 80 79
Width: 1271
VWidth: 0
Flags: W
LayerCount: 2
Fore
SplineSet
190.68 0 m 1
 190.68 1456 l 1
 606.67 1456 l 2
 949.35 1456 1202.87 1407.45 1202.87 1050.6 c 0
 1202.87 740.56 989.88 646.21 658.4 646.21 c 2
 409.58 646.21 l 1
 409.58 0 l 1
 190.68 0 l 1
409.58 833.41 m 1
 655.39 833.41 l 2
 852.61 833.41 976.93 873.37 976.93 1048.6 c 0
 976.93 1249.24 841.9 1267.13 613.69 1267.13 c 2
 409.58 1267.13 l 1
 409.58 833.41 l 1
EndSplineSet
EndChar

StartChar: Q
Encoding: 81 81 80
Width: 1644
VWidth: 0
Flags: W
LayerCount: 2
Fore
SplineSet
1239.48 -436.07 m 1
 1239.48 -436.07 1038.12 -251.09 918.05 -8.33 c 1
 1115.21 30.05 l 1
 1198.85 -143.24 1366.89 -299.98 1366.89 -299.98 c 1
 1239.48 -436.07 l 1
EndSplineSet
Refer: 67 79 N 1 0 0 1 0 0 2
EndChar

StartChar: R
Encoding: 82 82 81
Width: 1360
VWidth: 0
Flags: W
LayerCount: 2
Fore
SplineSet
190.68 0 m 1
 190.68 1456 l 1
 672.63 1456 l 2
 946.81 1456 1178.32 1392.57 1178.32 1063.28 c 0
 1178.32 897.37 1095.3 759.99 896.58 712.99 c 1
 998.72 672.65 1057.79 573.56 1110.11 443.93 c 2
 1290.22 0 l 1
 1053.63 0 l 1
 889.28 429.04 l 2
 828.99 587.26 786.28 632.57 635.08 632.57 c 2
 409.58 632.57 l 1
 409.58 0 l 1
 190.68 0 l 1
407.57 818.43 m 1
 655.87 818.43 l 2
 817.78 818.43 946.74 867.4 946.74 1049.29 c 0
 946.74 1226.84 859.13 1268.47 676.25 1268.47 c 2
 407.57 1268.47 l 1
 407.57 818.43 l 1
EndSplineSet
EndChar

StartChar: S
Encoding: 83 83 85
Width: 1230
VWidth: 0
Flags: W
LayerCount: 2
Fore
SplineSet
612.08 -22.67 m 0
 383.31 -22.67 192.22 71.76 121.96 142.34 c 1
 217.38 300.5 l 1
 288.55 244.36 452.63 164.2 602.37 164.2 c 0
 791.64 164.2 887.23 240.8 887.23 385.41 c 0
 887.23 519.91 843.36 574.2 549.8 661.53 c 0
 271.63 744.94 123.98 847.92 123.98 1093.29 c 0
 123.98 1352.98 346.28 1482.67 620.67 1482.67 c 0
 890.33 1482.67 1009.64 1402.87 1090.92 1323.61 c 1
 980.45 1176.8 l 1
 906.23 1246.69 782.82 1295.13 650.05 1295.13 c 0
 488.15 1295.13 356.57 1236.86 356.57 1101.31 c 0
 356.57 961.8 409.42 921.13 673.77 840.11 c 0
 1015.11 735.42 1117.5 624.49 1117.5 383.39 c 0
 1117.5 98.27 880.73 -22.67 612.08 -22.67 c 0
EndSplineSet
EndChar

StartChar: T
Encoding: 84 84 91
Width: 1160
VWidth: 0
Flags: W
LayerCount: 2
Fore
SplineSet
468.28 0 m 1
 468.28 1268.47 l 1
 10.67 1268.47 l 1
 10.67 1456 l 1
 1149.8 1456 l 1
 1149.8 1268.47 l 1
 687.18 1268.47 l 1
 687.18 0 l 1
 468.28 0 l 1
EndSplineSet
EndChar

StartChar: Tbar
Encoding: 358 358 92
Width: 1160
VWidth: 0
Flags: W
LayerCount: 2
Fore
SplineSet
220.48 623.74 m 1
 220.48 783.52 l 1
 921.64 783.52 l 1
 921.64 623.74 l 1
 220.48 623.74 l 1
EndSplineSet
Refer: 91 84 N 1 0 0 1 0 0 2
EndChar

StartChar: Thorn
Encoding: 222 222 94
Width: 1288
VWidth: 0
Flags: W
LayerCount: 2
Fore
SplineSet
195.63 0 m 1
 195.63 1456 l 1
 413.86 1456 l 1
 413.86 1218.35 l 1
 595.4 1218.35 l 2
 937.41 1218.35 1212.06 1142.69 1212.06 775.65 c 0
 1212.06 466.29 946.97 335.95 628.97 335.95 c 2
 412.52 335.95 l 1
 412.52 0 l 1
 195.63 0 l 1
412.52 523.81 m 1
 654.05 523.81 l 2
 849.93 523.81 977.14 599.76 977.14 774.99 c 0
 977.14 983.2 834.93 1032.16 608.06 1032.16 c 2
 412.52 1032.16 l 1
 412.52 523.81 l 1
EndSplineSet
EndChar

StartChar: U
Encoding: 85 85 95
Width: 1501
VWidth: 0
Flags: W
LayerCount: 2
Fore
SplineSet
748.05 -22.67 m 0
 293.53 -22.67 167.64 244.5 167.64 575.82 c 2
 167.64 1456 l 1
 386.54 1456 l 1
 386.54 571.44 l 2
 386.54 279.67 517.66 164.2 750.36 164.2 c 0
 975.47 164.2 1114.84 277.69 1114.84 567.81 c 2
 1114.84 1456 l 1
 1333.41 1456 l 1
 1333.41 577.8 l 2
 1332.75 237.57 1191.68 -22.67 748.05 -22.67 c 0
EndSplineSet
EndChar

StartChar: V
Encoding: 86 86 106
Width: 1348
VWidth: 0
Flags: W
LayerCount: 2
Fore
SplineSet
563.72 0 m 1
 14.68 1456 l 1
 260.28 1456 l 1
 600.99 491.48 l 1
 679.82 272.74 l 1
 758.64 491.14 l 1
 1104.03 1456 l 1
 1333.95 1456 l 1
 786.91 0 l 1
 563.72 0 l 1
EndSplineSet
EndChar

StartChar: W
Encoding: 87 87 107
Width: 2030
VWidth: 0
Flags: W
LayerCount: 2
Fore
SplineSet
423.03 0 m 1
 17.3 1456 l 1
 251.54 1456 l 1
 490.04 533.46 l 1
 556.84 255.34 l 1
 632.32 529.49 l 1
 914.79 1456 l 1
 1129.97 1456 l 1
 1416.13 524.78 l 1
 1493.61 254.64 l 1
 1555.08 521.16 l 1
 1787.89 1456 l 1
 2013.47 1456 l 1
 1618.4 0 l 1
 1364.48 0 l 1
 1017.2 1158.64 l 1
 673.28 0 l 1
 423.03 0 l 1
EndSplineSet
EndChar

StartChar: X
Encoding: 88 88 112
Width: 1315
VWidth: 0
Flags: W
LayerCount: 2
Fore
SplineSet
1036.53 0 m 1
 655.65 564.45 l 1
 270.05 0 l 1
 12.74 0 l 1
 530.85 738.98 l 1
 38.82 1456 l 1
 307.14 1456 l 1
 666.35 922.53 l 1
 1034.62 1456 l 1
 1285.58 1456 l 1
 790.82 747.99 l 1
 1302.53 0 l 1
 1036.53 0 l 1
EndSplineSet
EndChar

StartChar: Y
Encoding: 89 89 113
Width: 1246
VWidth: 0
Flags: W
LayerCount: 2
Fore
SplineSet
507.99 0 m 1
 507.99 569.62 l 1
 -0.74 1456 l 1
 244.55 1456 l 1
 621.11 762.51 l 1
 998.32 1456 l 1
 1247.63 1456 l 1
 726.89 571.95 l 1
 726.89 0 l 1
 507.99 0 l 1
EndSplineSet
EndChar

StartChar: Z
Encoding: 90 90 118
Width: 1188
VWidth: 0
Flags: W
LayerCount: 2
Fore
SplineSet
83.26 0 m 1
 83.26 117.46 l 1
 799.74 1268.47 l 1
 111.91 1268.47 l 1
 111.91 1456 l 1
 1099.41 1456 l 1
 1099.41 1342.54 l 1
 378.26 187.53 l 1
 1095.43 187.53 l 1
 1095.43 0 l 1
 83.26 0 l 1
EndSplineSet
EndChar

StartChar: a
Encoding: 97 97 122
Width: 1282
VWidth: 0
Flags: W
LayerCount: 2
Fore
SplineSet
604.38 -22.67 m 0
 267.36 -22.67 105.36 233.06 105.36 508.62 c 0
 105.36 798.54 281.64 1052 612.38 1052 c 0
 801.93 1052 908.62 935.19 956.34 822.05 c 1
 919.29 800.32 l 1
 919.29 1026 l 1
 1128.18 1026 l 1
 1128.18 0 l 1
 915.94 0 l 1
 915.94 242.29 l 1
 949.64 228.61 l 1
 902.35 97.39 782.4 -22.67 604.38 -22.67 c 0
626.76 879.81 m 0
 411.93 879.81 318.91 719.64 318.91 515.33 c 0
 318.91 314.03 412.24 149.52 629.77 149.52 c 0
 833.77 149.52 926.63 304.47 926.63 518.63 c 0
 926.63 722.61 831.36 879.81 626.76 879.81 c 0
EndSplineSet
EndChar

StartChar: acute
Encoding: 180 180 126
Width: 607
VWidth: 0
Flags: W
LayerCount: 2
Fore
SplineSet
57.87 1169.32 m 1
 305.98 1485.97 l 1
 578.95 1485.97 l 1
 244.15 1169.32 l 1
 57.87 1169.32 l 1
EndSplineSet
EndChar

StartChar: ae
Encoding: 230 230 128
Width: 1784
VWidth: 0
Flags: W
LayerCount: 2
Fore
SplineSet
463.42 -24.65 m 0
 640.19 -24.65 794.28 67.89 867.61 211.25 c 1
 939.64 68.91 1080.95 -20.36 1255.35 -22.67 c 0
 1502.18 -26.63 1651.3 104.69 1651.3 104.69 c 1
 1590.59 259.86 l 1
 1590.59 259.86 1448.21 143.25 1261.69 149.85 c 0
 1077.5 156.45 985.08 264.23 974.36 454.29 c 1
 974.36 477.93 l 1
 1672.88 477.93 l 1
 1672.88 477.93 1676.23 506.58 1676.23 521.32 c 0
 1676.23 825.56 1528.96 1056.29 1228.25 1052.33 c 0
 1081.24 1050.35 965.32 978.07 889.29 862.85 c 1
 831.24 991.75 678.58 1052.33 559.38 1052.33 c 0
 334 1052.33 179.15 964.71 151.35 947.96 c 1
 213.41 801.84 l 1
 293.81 840.03 417.21 883.5 523.25 883.5 c 0
 681.18 883.5 763.49 777.25 764.16 625.75 c 1
 728.13 625.75 l 2
 329.61 625.75 76.31 575.91 76.31 288.7 c 0
 76.31 89.33 234.33 -24.65 463.42 -24.65 c 0
479.36 147.86 m 0
 376.77 147.86 286.18 189.15 286.18 298.04 c 0
 286.18 438.26 457.44 477.93 635.35 477.93 c 2
 764.82 477.93 l 1
 762.81 317.1 686.9 147.86 479.36 147.86 c 0
977.03 622.4 m 1
 1001.75 765.65 1085.7 884.84 1242.23 884.84 c 0
 1374.33 884.84 1470.04 790.97 1488.03 634.04 c 2
 1489.36 622.4 l 1
 977.03 622.4 l 1
EndSplineSet
EndChar

StartChar: ampersand
Encoding: 38 38 131
Width: 1558
VWidth: 0
Flags: W
LayerCount: 2
Fore
SplineSet
628.33 -25.35 m 0
 341.97 -25.35 122.6 138.01 122.6 415.71 c 0
 122.6 633.35 275.22 749.38 444.88 850.04 c 1
 350.88 954.04 286.25 1041.97 286.25 1168.91 c 0
 286.25 1370.29 442.3 1473.31 631.01 1473.31 c 0
 810.4 1473.31 989.78 1379.29 989.78 1175.58 c 0
 989.78 1022.61 865.85 899.31 726.55 812.64 c 1
 1059.32 448.56 l 1
 1135.96 581.92 1175.88 752.15 1175.88 920.49 c 1
 1371.1 883.41 l 1
 1368.46 678.4 1302.46 455.05 1196.14 297.71 c 1
 1274.99 215.84 1388.63 144.76 1509.47 111.77 c 1
 1369.66 -13.7 l 1
 1242.93 6.98 1152.53 84.37 1074.33 165.93 c 1
 967.33 58.65 820.63 -25.35 628.33 -25.35 c 0
628.01 158.52 m 0
 771.24 158.52 866.55 219.83 949.17 301.75 c 1
 563.69 715.88 l 1
 442.1 647.25 337.15 568.27 337.15 417.04 c 0
 337.15 266.79 457.45 158.52 628.01 158.52 c 0
602.4 937.15 m 1
 697 996.12 784.87 1071.68 784.87 1165.58 c 0
 784.87 1264.16 706.95 1300.11 639.69 1300.11 c 0
 557.1 1300.11 492.84 1256.83 492.84 1164.24 c 0
 492.84 1079.99 532.8 1007.09 602.4 937.15 c 1
EndSplineSet
EndChar

StartChar: approxequal
Encoding: 8776 8776 133
Width: 1351
VWidth: 0
Flags: W
LayerCount: 2
Fore
SplineSet
291.45 241.57 m 1
 317.77 343.58 366.07 407.91 444.31 407.91 c 0
 486.91 407.91 545.91 379.91 604.2 348.28 c 1
 708.17 286.96 792.54 251.28 873.88 251.28 c 0
 1049.61 251.28 1143.62 365 1184.32 532.74 c 1
 1026.08 573.47 l 1
 988.42 469.14 945.12 408.14 878.54 408.14 c 0
 837.62 408.14 778.99 448.81 707.67 480.1 c 1
 628.33 522.43 538.64 566.77 444.63 566.77 c 0
 284.93 566.77 171.56 458.05 126.53 284.98 c 1
 291.45 241.57 l 1
292.46 602.51 m 1
 322.13 698.49 366.75 766.17 439.97 766.17 c 0
 487.26 766.17 540.57 737.84 600.2 702.19 c 0
 707.86 637.52 782.52 608.54 872.55 608.54 c 0
 1045.27 608.54 1143.96 719.25 1182.99 890 c 1
 1024.75 928.05 l 1
 987.08 823.06 943.12 762.72 877.21 762.72 c 0
 837.94 762.72 776.61 788.72 696.65 834.69 c 1
 604.98 889.03 531.65 921.69 443.3 921.69 c 0
 279.25 921.69 163.88 812.97 125.2 638.89 c 1
 292.46 602.51 l 1
EndSplineSet
EndChar

StartChar: asciicircum
Encoding: 94 94 135
Width: 1598
VWidth: 0
Flags: W
LayerCount: 2
Fore
SplineSet
233 549.88 m 1
 728.12 1456 l 1
 863.29 1456 l 1
 1365.07 549.88 l 1
 1155.13 549.88 l 1
 793.2 1220.35 l 1
 445.95 549.88 l 1
 233 549.88 l 1
EndSplineSet
EndChar

StartChar: asciitilde
Encoding: 126 126 136
Width: 1363
VWidth: 0
Flags: W
LayerCount: 2
Fore
SplineSet
306.26 356.86 m 1
 145.7 433.97 l 1
 175.37 581.35 283.48 709.17 457.85 709.17 c 0
 541.22 709.17 643.95 664.11 731.64 625.41 c 1
 759.03 614.85 865.85 565.77 901.12 565.77 c 0
 970.03 565.77 1021.68 652.77 1043.01 743.77 c 1
 1218.26 690.03 l 1
 1180.25 518.3 1070.85 391.91 902.13 391.91 c 0
 839.45 391.91 755.44 428.26 673.44 467.29 c 1
 646.38 478.18 513.8 536.98 462.86 536.98 c 0
 377.95 536.98 329.6 451.53 306.26 356.86 c 1
EndSplineSet
EndChar

StartChar: asterisk
Encoding: 42 42 137
Width: 1086
VWidth: 0
Flags: W
LayerCount: 2
Fore
SplineSet
698.5 682.74 m 1
 533.81 939.68 l 1
 370.77 685.38 l 1
 212.6 790.53 l 1
 417.02 1026.17 l 1
 142.99 1123.24 l 1
 211.44 1281.38 l 1
 460.4 1159.03 l 1
 430.4 1456.66 l 1
 628.31 1456.66 l 1
 604.91 1159.03 l 1
 845.62 1281.38 l 1
 920.34 1123.24 l 1
 649.61 1026.17 l 1
 857.33 786.56 l 1
 698.5 682.74 l 1
EndSplineSet
EndChar

StartChar: at
Encoding: 64 64 138
Width: 1787
VWidth: 0
Flags: W
LayerCount: 2
Fore
SplineSet
933.4 -93.72 m 0
 1145.36 -93.72 1362.27 -32.75 1508.39 93.84 c 1
 1433.35 191.31 l 1
 1292.6 91.73 1113.38 43.75 947.11 43.75 c 0
 601.24 43.75 283.18 252.31 283.18 673.61 c 0
 283.18 1111.02 590.81 1338.54 952.82 1338.54 c 0
 1260.97 1338.54 1536.73 1149.1 1536.73 800.65 c 0
 1536.73 554.24 1397 367.73 1292.19 367.73 c 0
 1244.57 367.73 1226.25 414.46 1226.25 454.08 c 0
 1226.25 495.66 1231.87 537.29 1248.57 620.82 c 2
 1348.5 1115.35 l 1
 1165.93 1115.35 l 1
 1142.95 1010.74 l 1
 1113.93 1102 1031.36 1138.98 930.67 1138.98 c 0
 726.43 1138.98 485.62 921.46 481 624.33 c 0
 477.04 383.61 650.43 261.96 806.44 261.96 c 0
 951.9 261.96 1056.49 351.33 1097.12 460.36 c 1
 1097.12 333.47 1170.19 253.67 1306.57 253.67 c 0
 1507.28 253.67 1681.18 517.49 1681.18 795.65 c 0
 1681.18 1197.35 1360.83 1480.68 948.12 1480.68 c 0
 494 1480.68 106.66 1174.34 106.66 674.27 c 0
 106.66 200.62 467 -93.72 933.4 -93.72 c 0
831.17 425.48 m 0
 743.92 425.48 683.96 492.75 683.96 592.67 c 0
 683.96 767.26 791.13 985.77 951.73 985.77 c 0
 1038.96 985.77 1092.61 920.9 1092.61 821.97 c 0
 1092.61 622.38 978.77 425.48 831.17 425.48 c 0
EndSplineSet
EndChar

StartChar: b
Encoding: 98 98 140
Width: 1278
VWidth: 0
Flags: W
LayerCount: 2
Fore
SplineSet
705.65 -22.67 m 0
 542.11 -22.67 420.8 63.25 373.14 153.16 c 1
 372.48 0 l 1
 155.9 0 l 1
 160.59 144.05 163.57 241.02 163.57 271.34 c 2
 163.57 1472.57 l 1
 375.14 1472.57 l 1
 375.14 867.76 l 1
 408.32 941.54 517.88 1052 711.7 1052 c 0
 997.42 1052 1177.04 840.24 1177.04 525.95 c 0
 1177.04 192.36 971.94 -22.67 705.65 -22.67 c 0
673.23 149.52 m 0
 864.22 149.52 955.45 306.55 955.45 523.25 c 0
 955.45 726.14 855.57 879.81 672.95 879.81 c 0
 481.69 879.81 366.43 725.15 366.43 515 c 0
 366.43 305.89 476.63 149.52 673.23 149.52 c 0
EndSplineSet
EndChar

StartChar: backslash
Encoding: 92 92 141
Width: 720
VWidth: 0
Flags: W
LayerCount: 2
Fore
SplineSet
559.97 -53.6 m 1
 -70.78 1456 l 1
 151.49 1456 l 1
 778.9 -53.6 l 1
 559.97 -53.6 l 1
EndSplineSet
EndChar

StartChar: bar
Encoding: 124 124 142
Width: 708
VWidth: 0
Flags: W
LayerCount: 2
Fore
SplineSet
252.84 -470.23 m 1
 252.84 1522.89 l 1
 455.4 1522.89 l 1
 455.4 -470.23 l 1
 252.84 -470.23 l 1
EndSplineSet
EndChar

StartChar: braceleft
Encoding: 123 123 143
Width: 676
VWidth: 0
Flags: W
LayerCount: 2
Fore
SplineSet
608.37 -195.71 m 1
 330.58 -193.07 226.37 -71.48 226.37 131.91 c 2
 226.37 362.75 l 2
 226.37 502.83 178.07 571.58 58.24 577.19 c 1
 58.24 730.01 l 1
 167.53 733.64 225.37 801.2 225.7 923.81 c 2
 225.7 1154.7 l 2
 225.7 1350.04 314.09 1500.89 610.38 1500.89 c 1
 610.38 1334.69 l 1
 483.6 1333.7 442.96 1257.51 442.96 1116.44 c 2
 442.96 866.97 l 2
 442.96 751.51 362.74 680.91 275.56 648.24 c 1
 369.36 603.56 442.96 520.5 442.96 390.3 c 2
 442.96 138.13 l 2
 442.96 -6.66 516.2 -29.51 608.37 -30.18 c 1
 608.37 -195.71 l 1
EndSplineSet
EndChar

StartChar: braceright
Encoding: 125 125 144
Width: 723
VWidth: 0
Flags: W
LayerCount: 2
Fore
SplineSet
111.03 936.59 m 1
 327.44 936.59 366.97 879.68 366.97 739.65 c 1
 401.29 740.64 438.58 609.13 438.58 651.04 c 1
 438.58 551.88 468.73 617.77 537.74 617.77 c 1
 537.74 669.58 571.73 584.74 610.67 595.3 c 1
 496.1 609.16 439.25 616.51 439.25 567.82 c 2
 439.25 492.36 l 2
 439.25 422.75 368.02 327.01 109.02 327.01 c 1
 109.02 493.21 l 1
 262.86 490.57 330.89 531.12 330.89 566.92 c 2
 330.89 634.23 l 2
 330.89 656.96 395.27 660.57 494.33 677.07 c 1
 444.75 707.89 399.86 705.15 399.86 805.65 c 1
 360.92 802.02 331.22 952.88 330.89 908.66 c 1
 330.89 991.74 288.01 913.61 237.09 914.28 c 1
 237.09 850.26 189.57 936.59 111.03 936.59 c 1
EndSplineSet
EndChar

StartChar: bracketleft
Encoding: 91 91 145
Width: 643
VWidth: 0
Flags: W
LayerCount: 2
Fore
SplineSet
157.55 -198.39 m 1
 157.55 1482.8 l 1
 572.59 1482.8 l 1
 572.59 1321.94 l 1
 370.8 1321.94 l 1
 370.8 -37.53 l 1
 573.59 -37.53 l 1
 573.59 -198.39 l 1
 157.55 -198.39 l 1
EndSplineSet
EndChar

StartChar: bracketright
Encoding: 93 93 146
Width: 643
VWidth: 0
Flags: W
LayerCount: 2
Fore
SplineSet
110.53 -198.39 m 1
 110.53 -37.53 l 1
 308.97 -37.53 l 1
 308.97 1321.94 l 1
 110.2 1321.94 l 1
 110.2 1482.8 l 1
 522.89 1482.8 l 1
 522.89 -198.39 l 1
 110.53 -198.39 l 1
EndSplineSet
EndChar

StartChar: breve
Encoding: 728 728 147
Width: 652
VWidth: 0
Flags: W
LayerCount: 2
Fore
SplineSet
328.16 1180.53 m 0
 149.09 1180.53 44.33 1262.22 30.66 1456 c 1
 180.82 1456 l 1
 188.16 1353.97 250.88 1330.36 328.16 1330.36 c 0
 405.44 1330.36 462.84 1355.62 473.5 1456 c 1
 621.66 1456 l 1
 608.32 1263.21 504.59 1180.53 328.16 1180.53 c 0
EndSplineSet
EndChar

StartChar: brokenbar
Encoding: 166 166 148
Width: 500
VWidth: 0
Flags: W
LayerCount: 2
Fore
SplineSet
137.85 -470.23 m 1
 137.85 405.73 l 1
 341.75 405.73 l 1
 341.75 -470.23 l 1
 137.85 -470.23 l 1
136.51 612.68 m 1
 136.51 1522.89 l 1
 340.41 1522.89 l 1
 340.41 612.68 l 1
 136.51 612.68 l 1
EndSplineSet
EndChar

StartChar: bullet
Encoding: 8226 8226 149
Width: 989
VWidth: 0
Flags: W
LayerCount: 2
Fore
SplineSet
493 369.59 m 0
 295.28 369.59 161.28 516.62 161.28 687.3 c 0
 161.28 861.98 306.31 1010 493 1010 c 0
 686.38 1010 828.05 860.32 828.05 687.3 c 0
 828.05 513.29 681.69 369.59 493 369.59 c 0
EndSplineSet
EndChar

StartChar: c
Encoding: 99 99 150
Width: 1052
VWidth: 0
Flags: W
LayerCount: 2
Fore
SplineSet
628.75 -22.67 m 0
 301.63 -22.67 102.02 210.15 102.02 509.03 c 0
 102.02 826.6 309.63 1052 630.72 1052 c 0
 776.82 1052 896.85 1007.65 979.54 923.27 c 1
 904.45 784.46 l 1
 844.13 837.45 755.83 879.48 648.44 879.48 c 0
 458.04 879.48 322.27 751.74 322.27 509.69 c 0
 322.27 291.49 446.21 149.52 647.83 149.52 c 0
 771.59 149.52 863.85 203.29 917.08 243.54 c 1
 982.48 89.68 l 1
 881.73 15.65 770.75 -22.67 628.75 -22.67 c 0
EndSplineSet
EndChar

StartChar: caron
Encoding: 711 711 152
Width: 699
VWidth: 0
Flags: W
LayerCount: 2
Fore
SplineSet
259.94 1133.82 m 1
 -2.51 1486.64 l 1
 202.78 1486.64 l 1
 344 1302.12 l 1
 487.88 1486.64 l 1
 702.18 1486.64 l 1
 441.4 1133.82 l 1
 259.94 1133.82 l 1
EndSplineSet
EndChar

StartChar: cedilla
Encoding: 184 184 157
Width: 529
VWidth: 0
Flags: W
LayerCount: 2
Fore
SplineSet
219.63 -419.36 m 0
 154.38 -419.36 46.54 -394.04 31.55 -389.04 c 1
 45.22 -280.26 l 1
 62.56 -287.27 153.62 -309.27 213.98 -309.27 c 0
 284.92 -309.27 314.26 -273.24 314.26 -238.95 c 0
 314.26 -203.99 285.65 -158.25 158.97 -158.25 c 2
 132.26 -158.25 l 1
 163.92 26.38 l 1
 272.36 26.38 l 1
 254.03 -86.23 l 1
 409.84 -102.25 490.78 -160.71 490.78 -244.28 c 0
 490.78 -339.22 402.53 -419.36 219.63 -419.36 c 0
EndSplineSet
EndChar

StartChar: cent
Encoding: 162 162 158
Width: 1049
VWidth: 0
Flags: W
LayerCount: 2
Fore
SplineSet
576.7 -225.44 m 1
 576.7 1250.66 l 1
 683.1 1250.66 l 1
 683.1 -225.44 l 1
 576.7 -225.44 l 1
EndSplineSet
Refer: 150 99 N 1 0 0 1 0 0 2
EndChar

StartChar: circumflex
Encoding: 710 710 159
Width: 699
VWidth: 0
Flags: W
LayerCount: 2
Fore
SplineSet
1.75 1133.82 m 1
 246.5 1487.31 l 1
 448.82 1487.31 l 1
 697.59 1133.82 l 1
 506.63 1133.82 l 1
 346 1316.42 l 1
 184.03 1133.82 l 1
 1.75 1133.82 l 1
EndSplineSet
EndChar

StartChar: colon
Encoding: 58 58 160
Width: 562
VWidth: 0
Flags: W
LayerCount: 2
Fore
SplineSet
148.64 -7.37 m 1
 148.64 237.47 l 1
 413.88 237.47 l 1
 413.88 -7.37 l 1
 148.64 -7.37 l 1
148.64 870.09 m 1
 148.64 1114.93 l 1
 413.21 1114.93 l 1
 413.88 870.09 l 1
 148.64 870.09 l 1
EndSplineSet
EndChar

StartChar: comma
Encoding: 44 44 161
Width: 512
VWidth: 0
Flags: W
LayerCount: 2
Fore
SplineSet
63.26 -245.28 m 1
 172.94 241.84 l 1
 412.2 241.84 l 1
 239.82 -245.28 l 1
 63.26 -245.28 l 1
EndSplineSet
EndChar

StartChar: commaaccent
Encoding: 65536 -1 162
Width: 540
VWidth: 0
Flags: W
LayerCount: 2
Fore
SplineSet
94.86 -624.15 m 1
 205.21 -137.03 l 1
 445.14 -137.03 l 1
 272.09 -624.15 l 1
 94.86 -624.15 l 1
EndSplineSet
EndChar

StartChar: copyright
Encoding: 169 169 163
Width: 1721
VWidth: 0
Flags: W
LayerCount: 2
Fore
SplineSet
881.3 282.69 m 0
 610.55 282.69 445.61 475.14 445.61 722.69 c 0
 445.61 985.26 617.22 1171.64 882.61 1171.64 c 0
 1003.69 1171.64 1103.37 1134.96 1171.39 1065.26 c 1
 1109.65 950.81 l 1
 1059.33 994.47 986.03 1029.16 896.99 1029.16 c 0
 740.61 1029.16 627.81 923.43 627.81 723.02 c 0
 627.81 542.14 729.75 424.84 897.37 424.84 c 0
 999.44 424.84 1075.71 468.92 1119.62 502.85 c 1
 1174.34 375.7 l 1
 1090.61 314.34 998.63 282.69 881.3 282.69 c 0
860.64 1483.66 m 0
 445.65 1483.66 106.66 1144.67 106.66 729.68 c 0
 106.66 314.69 445.65 -24.97 860.64 -24.97 c 0
 1275.63 -24.97 1614.95 314.69 1614.95 729.68 c 0
 1614.95 1144.67 1275.63 1483.66 860.64 1483.66 c 0
860.3 82.08 m 0
 509.67 82.08 230.38 376.05 230.38 726.35 c 0
 230.38 1076.98 509.67 1370.95 860.3 1370.95 c 0
 1209.93 1370.95 1489.89 1076.98 1489.89 726.35 c 0
 1489.89 376.05 1209.93 82.08 860.3 82.08 c 0
EndSplineSet
EndChar

StartChar: currency
Encoding: 164 164 164
Width: 1218
VWidth: 0
Flags: W
LayerCount: 2
Fore
SplineSet
1048 543.66 m 1
 862 729.66 l 1
 794 673.66 706 639.66 610 639.66 c 0
 514 639.66 426 673.66 358 730.66 c 1
 171 543.66 l 1
 120 594.66 l 1
 307 781.66 l 1
 252 847.66 219 931.66 219 1024.66 c 0
 219 1121.66 255 1209.66 314 1276.66 c 1
 119 1471.66 l 1
 170 1522.66 l 1
 367 1326.66 l 1
 433 1378.66 518 1409.66 610 1409.66 c 0
 702 1409.66 786 1378.66 853 1327.66 c 1
 1048 1522.66 l 1
 1099 1471.66 l 1
 906 1278.66 l 1
 966 1210.66 1002 1122.66 1002 1024.66 c 0
 1002 931.66 969 846.66 913 779.66 c 1
 1099 594.66 l 1
 1048 543.66 l 1
609 710.66 m 0
 783 710.66 911 848.65 911 1022.65 c 0
 911 1196.65 783 1331.66 609 1331.66 c 0
 435 1331.66 307 1196.65 307 1022.65 c 0
 307 848.65 435 710.66 609 710.66 c 0
EndSplineSet
EndChar

StartChar: d
Encoding: 100 100 165
Width: 1266
VWidth: 0
Flags: W
LayerCount: 2
Fore
SplineSet
574.67 -22.67 m 0
 306.73 -22.67 103.36 181.67 103.36 507.34 c 0
 103.36 814.87 276.28 1052 587.38 1052 c 0
 751.02 1052 859.26 964 893.88 894.16 c 1
 893.88 1472.57 l 1
 1105.45 1472.57 l 1
 1105.45 266.72 l 2
 1105.78 220.89 1107.11 169.46 1112.79 0 c 1
 896.54 0 l 1
 893.88 153.52 l 1
 862.28 77.01 761.02 -22.67 574.67 -22.67 c 0
610.44 149.52 m 0
 804.4 149.52 898.9 305.89 898.9 520.28 c 0
 898.9 723.83 801.7 879.81 613.41 879.81 c 0
 424.13 879.81 324.95 724.16 324.95 512.36 c 0
 324.95 306.55 418.79 149.52 610.44 149.52 c 0
EndSplineSet
EndChar

StartChar: dagger
Encoding: 8224 8224 166
Width: 1022
VWidth: 0
Flags: W
LayerCount: 2
Fore
SplineSet
409.55 108.31 m 1
 409.55 894.47 l 1
 83.55 894.47 l 1
 83.55 1064.66 l 1
 409.55 1064.66 l 1
 409.55 1432.91 l 1
 583.71 1432.91 l 1
 583.71 1064.66 l 1
 919 1064.66 l 1
 919 894.47 l 1
 579.09 894.47 l 1
 579.09 108.31 l 1
 409.55 108.31 l 1
EndSplineSet
EndChar

StartChar: daggerdbl
Encoding: 8225 8225 167
Width: 1124
VWidth: 0
Flags: W
LayerCount: 2
Fore
SplineSet
474.07 -66.8 m 1
 474.07 390.74 l 1
 133.4 390.74 l 1
 133.4 535.26 l 1
 474.07 535.26 l 1
 474.07 914.82 l 1
 138.06 914.82 l 1
 138.06 1065.68 l 1
 474.07 1065.68 l 1
 474.07 1456 l 1
 658.31 1456 l 1
 658.31 1065.68 l 1
 990.93 1065.68 l 1
 990.93 914.82 l 1
 658.31 914.82 l 1
 658.31 535.26 l 1
 982.59 535.26 l 1
 982.59 390.74 l 1
 658.64 390.74 l 1
 658.64 -66.8 l 1
 474.07 -66.8 l 1
EndSplineSet
EndChar

StartChar: dblgravecmb
Encoding: 783 783 168
Width: 969
VWidth: 0
Flags: W
LayerCount: 2
Fore
SplineSet
429 1174 m 1
 153 1487 l 1
 329 1487 l 1
 549 1174 l 1
 429 1174 l 1
698 1174 m 1
 423 1487 l 1
 599 1487 l 1
 816 1174 l 1
 698 1174 l 1
EndSplineSet
EndChar

StartChar: dcroat
Encoding: 273 273 170
Width: 1254
VWidth: 0
Flags: W
LayerCount: 2
Fore
SplineSet
593.05 1195.15 m 1
 593.05 1341.86 l 1
 1207.74 1341.86 l 1
 1207.74 1195.15 l 1
 593.05 1195.15 l 1
EndSplineSet
Refer: 165 100 N 1 0 0 1 0 0 2
EndChar

StartChar: degree
Encoding: 176 176 171
Width: 868
VWidth: 0
Flags: W
LayerCount: 2
Fore
SplineSet
434.06 1456.73 m 0
 262.4 1456.73 125.69 1322.05 125.69 1154.02 c 0
 125.69 985.32 262.73 851.65 434.06 851.65 c 0
 606.06 851.65 742.43 985.32 742.43 1154.02 c 0
 742.43 1322.05 606.39 1456.73 434.06 1456.73 c 0
434.06 974.4 m 0
 330.13 974.4 260.11 1054.69 260.11 1154.35 c 0
 260.11 1253.34 331.12 1332.64 434.06 1332.64 c 0
 538.34 1332.64 609.35 1253.34 609.35 1154.35 c 0
 609.35 1054.69 539.33 974.4 434.06 974.4 c 0
EndSplineSet
EndChar

StartChar: dieresis
Encoding: 168 168 172
Width: 743
VWidth: 0
Flags: W
LayerCount: 2
Fore
SplineSet
60.35 1150.17 m 1
 60.35 1351.36 l 1
 272.59 1351.36 l 1
 272.59 1150.17 l 1
 60.35 1150.17 l 1
469.4 1150.17 m 1
 469.4 1351.36 l 1
 680.97 1351.36 l 1
 680.97 1150.17 l 1
 469.4 1150.17 l 1
EndSplineSet
EndChar

StartChar: divide
Encoding: 247 247 173
Width: 1378
VWidth: 0
Flags: W
LayerCount: 2
Fore
SplineSet
540.51 -1.78 m 1
 540.51 243.73 l 1
 804.41 243.73 l 1
 805.08 -1.78 l 1
 540.51 -1.78 l 1
159.4 464.23 m 1
 159.4 642.09 l 1
 1177.19 642.09 l 1
 1177.19 464.23 l 1
 159.4 464.23 l 1
538.5 854.24 m 1
 538.5 1099.08 l 1
 802.4 1099.08 l 1
 802.4 854.24 l 1
 538.5 854.24 l 1
EndSplineSet
EndChar

StartChar: dollar
Encoding: 36 36 174
Width: 1214
VWidth: 0
Flags: W
LayerCount: 2
Fore
SplineSet
577.73 -207.41 m 1
 577.73 1629.64 l 1
 682.64 1629.64 l 1
 682.64 -207.41 l 1
 577.73 -207.41 l 1
EndSplineSet
Refer: 85 83 N 1 0 0 1 0 0 2
EndChar

StartChar: dotaccent
Encoding: 729 729 175
Width: 524
VWidth: 0
Flags: W
LayerCount: 2
Fore
SplineSet
156.55 1255.48 m 1
 156.55 1456 l 1
 367.45 1456 l 1
 367.45 1255.48 l 1
 156.55 1255.48 l 1
EndSplineSet
EndChar

StartChar: dotaccentcmb
Encoding: 775 775 176
Width: 524
VWidth: 0
Flags: W
LayerCount: 2
Fore
SplineSet
184 1246 m 1
 182 1409 l 1
 339 1409 l 1
 342 1246 l 1
 184 1246 l 1
EndSplineSet
EndChar

StartChar: dotlessi
Encoding: 305 305 177
Width: 503
VWidth: 0
Flags: W
LayerCount: 2
Fore
SplineSet
137.85 0 m 1
 137.52 1026 l 1
 350.76 1026 l 1
 351.09 0 l 1
 137.85 0 l 1
EndSplineSet
EndChar

StartChar: dotlessj
Encoding: 567 567 178
Width: 503
VWidth: 0
Flags: W
LayerCount: 2
Fore
SplineSet
23.68 -410.25 m 0
 -16.67 -410.25 -64.37 -405.57 -123.11 -393.89 c 1
 -123.44 -212.7 l 1
 -67.34 -225.06 -36.99 -228.73 -17.33 -228.73 c 0
 83.19 -228.73 143.51 -141.11 143.51 51.77 c 2
 143.51 1026 l 1
 355.41 1026 l 1
 355.41 99.3 l 2
 355.41 -128.01 319.37 -410.25 23.68 -410.25 c 0
EndSplineSet
EndChar

StartChar: e
Encoding: 101 101 179
Width: 1184
VWidth: 0
Flags: W
LayerCount: 2
Fore
SplineSet
651.09 -22.67 m 0
 312.35 -22.67 104.7 192.38 104.7 511.34 c 0
 104.7 814.55 302.99 1052 620.42 1052 c 0
 930.58 1052 1075.77 824.56 1075.77 527.25 c 0
 1075.77 519.88 1074.77 503.2 1071.76 479.94 c 1
 327.29 479.94 l 1
 333.31 256.71 472.58 149.52 665.48 149.52 c 0
 783.43 149.52 891.42 186.18 989.8 262.5 c 1
 1050.51 106.67 l 1
 936.76 19.66 806.79 -22.67 651.09 -22.67 c 0
331.62 624.41 m 1
 889.57 624.41 l 1
 869.89 796.91 767.33 885.17 628.13 885.17 c 0
 472.54 885.17 360.64 788.23 331.62 624.41 c 1
EndSplineSet
EndChar

StartChar: eight
Encoding: 56 56 187
Width: 1250
VWidth: 0
Flags: W
LayerCount: 2
Fore
SplineSet
627.09 -23 m 0
 358.66 -23 138.02 124.36 138.02 386.39 c 0
 138.02 558.66 239.99 693.97 411.53 763.67 c 1
 266.32 829.38 169.34 942.67 169.34 1105.29 c 0
 169.34 1343.32 366.01 1483 623.07 1483 c 0
 894.53 1483 1080.81 1339.3 1080.81 1099.26 c 0
 1080.81 935.97 987.85 822.68 840.63 761.66 c 1
 1003.46 695.31 1112.47 551.29 1112.47 381.7 c 0
 1112.47 120.34 881.44 -23 627.09 -23 c 0
625.08 163.54 m 0
 783.98 163.54 893.23 240.46 893.23 399.39 c 0
 893.23 535.25 778.62 643.97 628.43 678.96 c 1
 472.87 645.31 358.6 543.29 358.6 397.38 c 0
 358.6 245.82 466.17 163.54 625.08 163.54 c 0
624.41 849.06 m 1
 773.94 886.07 863.22 972.72 863.22 1103.64 c 0
 863.22 1229.17 753.98 1298.44 623.74 1298.44 c 0
 490.14 1298.44 385.59 1231.85 385.59 1096.94 c 0
 385.59 971.38 474.87 884.06 624.41 849.06 c 1
EndSplineSet
EndChar

StartChar: ellipsis
Encoding: 8230 8230 188
Width: 1620
VWidth: 0
Flags: W
LayerCount: 2
Fore
SplineSet
133.54 -11 m 1
 133.54 233.84 l 1
 398.78 233.84 l 1
 399.45 -11 l 1
 133.54 -11 l 1
662.82 -11 m 1
 662.82 233.84 l 1
 928.06 233.84 l 1
 928.73 -11 l 1
 662.82 -11 l 1
1192.1 -11 m 1
 1192.1 233.84 l 1
 1456 233.84 l 1
 1456 -11 l 1
 1192.1 -11 l 1
EndSplineSet
EndChar

StartChar: emdash
Encoding: 8212 8212 190
Width: 2171
VWidth: 0
Flags: W
LayerCount: 2
Fore
SplineSet
19.11 468.23 m 1
 19.11 644.09 l 1
 2147.27 644.09 l 1
 2147.27 468.23 l 1
 19.11 468.23 l 1
EndSplineSet
EndChar

StartChar: endash
Encoding: 8211 8211 191
Width: 1085
VWidth: 0
Flags: W
LayerCount: 2
Fore
SplineSet
-8.01 468.23 m 1
 -8.01 644.09 l 1
 1090.7 644.09 l 1
 1090.7 468.23 l 1
 -8.01 468.23 l 1
EndSplineSet
EndChar

StartChar: eng
Encoding: 331 331 192
Width: 1215
VWidth: 0
Flags: W
LayerCount: 2
Fore
SplineSet
236.26 -353.71 m 1
 263.97 -182.88 l 1
 373.84195 -213.09161 476.05969 -231.61792 563.6966 -231.61792 c 0
 754.28549 -231.61792 860.7 -141.63919 860.7 78.81 c 2
 860.7 571.87 l 2
 860.7 775.39 824.34 879.48 657.92 879.48 c 0
 520.56 879.48 380.16 756.74 379.83 630.56 c 2
 379.83 0 l 1
 167.26 0 l 1
 167.26 696.59 l 2
 167.26 889.27 153.22 1026 153.22 1026 c 1
 375.16 1026 l 1
 376.48 880.65 l 1
 443.75 995.33 578.13 1051.67 699.98 1051.67 c 0
 957.44 1051.67 1073.27 900.28 1073.27 570.1 c 2
 1073.27 121.59 l 2
 1073.27 -220.10361 905.93057 -398.8994 569.98831 -398.8994 c 0
 472.97043 -398.8994 361.547 -384.01897 236.26 -353.71 c 1
EndSplineSet
EndChar

StartChar: equal
Encoding: 61 61 194
Width: 1372
VWidth: 0
Flags: W
LayerCount: 2
Fore
SplineSet
191.17 278.88 m 1
 191.17 452.06 l 1
 1181.54 452.06 l 1
 1181.54 278.88 l 1
 191.17 278.88 l 1
190.84 676.27 m 1
 190.84 850.45 l 1
 1179.87 850.45 l 1
 1179.87 676.27 l 1
 190.84 676.27 l 1
EndSplineSet
EndChar

StartChar: eth
Encoding: 240 240 195
Width: 1220
VWidth: 0
Flags: W
LayerCount: 2
Fore
SplineSet
589.62 -23.67 m 0
 914.28 -23.67 1104.97 197.72 1104.97 625.97 c 0
 1104.97 1171.42003 661.84 1419.52 357.08 1480.42 c 1
 278.75 1339.96 l 1
 659.18617 1253.6861 877.04 1012.55 893.79 783.92 c 1
 897.81 767.84 900.49 750.47 900.49 740.42 c 1
 822.33 840.19 709.27 901.69 562.51 901.69 c 0
 284.18 901.69 101.98 724.07 101.98 460.74 c 0
 101.98 196.41 289.63 -23.67 589.62 -23.67 c 0
597.7 151.5 m 0
 449.22 151.5 322.87 259.34 322.87 447.7 c 0
 322.87 625.36 441.87 722.83 592.62 722.83 c 0
 731.18 722.83 874.1 620.9 874.1 459.24 c 0
 874.1 272.59 759.65 151.5 597.7 151.5 c 0
454.36 1031.07 m 1
 1009.92 1366.96 l 1
 941.6 1480.76 l 1
 386.04 1145.2 l 1
 454.36 1031.07 l 1
EndSplineSet
EndChar

StartChar: euro
Encoding: 65537 -1 196
Width: 1190
VWidth: 0
Flags: W
LayerCount: 2
Fore
SplineSet
731.57 -21 m 0
 403.9 -21 236.58 187.29 190.22 493.89 c 1
 55.22 493.89 l 1
 79.24 641.94 l 1
 173.87 641.94 l 1
 166.057034162 680.221055901 166.462766885 728.026601307 173.54 785.34 c 1
 50.88 785.34 l 1
 78.24 926.69 l 1
 195.89 926.69 l 1
 255.91 1221.63 448.24 1429.91 760.22 1429.91 c 0
 896.91 1429.91 1012.28 1388.56 1101.31 1299.85 c 1
 1058.61 1126.93 l 1
 969.86 1206.46 858.83 1248.73 756.57 1248.73 c 0
 573.06 1248.73 471.82 1108.89 423.81 926.69 c 1
 987.67 926.69 l 1
 962.98 785.34 l 1
 399.78 785.34 l 1
 394.658819444 739.807615741 393.787750469 674.005557223 402.12 641.94 c 1
 955.01 641.94 l 1
 932.66 493.89 l 1
 417.46 493.89 l 1
 448.46 297.73 549.75 163.19 746.23 163.19 c 0
 833.5 163.19 943.85 191.8 1077.97 258.36 c 1
 1077.64 82.37 l 1
 972.61 11.35 856.59 -21 731.57 -21 c 0
EndSplineSet
EndChar

StartChar: exclam
Encoding: 33 33 197
Width: 628
VWidth: 0
Flags: W
LayerCount: 2
Fore
SplineSet
185.09 0 m 1
 442.64 0 l 1
 442.64 243.52 l 1
 185.09 243.52 l 1
 185.09 0 l 1
252.12 381.04 m 1
 377.27 381.04 l 1
 440.67 1456 l 1
 188.72 1456 l 1
 252.12 381.04 l 1
EndSplineSet
EndChar

StartChar: f
Encoding: 102 102 199
Width: 767
VWidth: 0
Flags: W
LayerCount: 2
Fore
SplineSet
255.7 0 m 1
 255.7 884.83 l 1
 69.34 884.83 l 1
 69.34 1026 l 1
 255.7 1026 l 1
 255.7 1090.82 l 2
 255.7 1365.27 294.33 1486.64 666.18 1486.64 c 2
 716.2 1486.64 l 1
 710.84 1321.79 l 1
 485.94 1321.79 467.27 1286.21 467.27 1102.43 c 2
 467.27 1026 l 1
 706.22 1026 l 1
 706.22 884.83 l 1
 467.27 884.83 l 1
 467.27 0 l 1
 255.7 0 l 1
EndSplineSet
EndChar

StartChar: fi
Encoding: 64257 64257 200
Width: 1256
VWidth: 0
Flags: W
LayerCount: 2
Fore
SplineSet
255.7 0 m 1
 255.7 884.83 l 1
 69.34 884.83 l 1
 69.34 1026 l 1
 255.7 1026 l 1
 255.7 1090.82 l 2
 255.7 1365.27 294.33 1486.64 666.18 1486.64 c 2
 716.2 1486.64 l 1
 710.84 1321.79 l 1
 485.94 1321.79 467.27 1286.21 467.27 1102.43 c 2
 467.27 1026 l 1
 918.7 1026 l 1
 918.7 884.83 l 1
 467.27 884.83 l 1
 467.27 0 l 1
 255.7 0 l 1
EndSplineSet
Refer: 224 105 N 1 0 0 1 730.83 0 2
EndChar

StartChar: five
Encoding: 53 53 201
Width: 1248
VWidth: 0
Flags: W
LayerCount: 2
Fore
SplineSet
615.05 -23 m 0
 453.04 -23 286.01 32.74 163.65 159.78 c 1
 273.47 322.96 l 1
 370.46 210.6 497.09 164.2 611.04 164.2 c 0
 784.8 164.2 899.24 282.03 899.24 470.71 c 0
 899.24 622.6 816.65 753.56 664.52 753.56 c 0
 586.26 753.56 501.06 726.64 463.08 670.02 c 1
 251.47 689.45 l 1
 251.47 1456 l 1
 1046.56 1456 l 1
 1046.56 1268.47 l 1
 449.31 1268.47 l 1
 436.65 851.12 l 1
 496.3 920.82 597.28 947.11 695.98 947.11 c 0
 944.77 947.11 1124.48 741.41 1124.48 467.04 c 0
 1124.48 160.87 901.87 -23 615.05 -23 c 0
EndSplineSet
EndChar

StartChar: fl
Encoding: 64258 64258 202
Width: 1259
VWidth: 0
Flags: W
LayerCount: 2
Fore
SplineSet
473.87 884.83 m 1
 473.87 0 l 1
 262.3 0 l 1
 262.3 884.83 l 1
 69.34 884.83 l 1
 69.34 1026 l 1
 262.3 1026 l 1
 262.3 1073.13 l 2
 262.3 1347.9 343.59 1463.99 704.81 1463.99 c 2
 1105.52 1463.99 l 1
 1105.52 0 l 1
 894.62 0 l 1
 894.62 1300.47 l 1
 734.29 1300.47 l 2
 515.86 1300.47 473.87 1254.81 473.87 1113.55 c 2
 473.87 1026 l 1
 712.82 1026 l 1
 712.82 884.83 l 1
 473.87 884.83 l 1
EndSplineSet
EndChar

StartChar: florin
Encoding: 402 402 203
Width: 1087
VWidth: 0
Flags: W
LayerCount: 2
Fore
SplineSet
202.01 -305.73 m 0
 188.75 -305.73 141.69 -302.07 95.33 -288.39 c 1
 111.01 -119.55 l 1
 111.01 -119.55 157.35 -130.21 197.39 -130.21 c 0
 267.92 -130.21 329.62 -96.01 357.99 56.87 c 2
 479.84 735 l 1
 332.56 735 l 1
 363.62 875.47 l 1
 505.87 875.47 l 1
 550.62 1118.26 l 1
 577.62 1273.14 640.26 1460.93 895.37 1460.93 c 0
 1002.2 1460.93 1067.82 1422.22 1067.82 1422.22 c 1
 1051.15 1258.39 l 1
 1051.15 1258.39 989.12 1278.06 938.12 1278.06 c 0
 859.64 1278.06 802.56 1245.51 780.54 1130.43 c 2
 730.16 875.47 l 1
 909.69 875.47 l 1
 881.33 735 l 1
 701.11 735 l 1
 581.86 68.18 l 2
 535.17 -192.6 428.25 -305.73 202.01 -305.73 c 0
EndSplineSet
EndChar

StartChar: four
Encoding: 52 52 204
Width: 1248
VWidth: 0
Flags: W
LayerCount: 2
Fore
SplineSet
737.27 0 m 1
 737.27 383.65 l 1
 106.01 383.65 l 1
 106.01 546.1 l 1
 692.68 1456 l 1
 953.49 1456 l 1
 953.49 551.83 l 1
 1176.2 551.83 l 1
 1176.2 383.65 l 1
 956.17 383.65 l 1
 956.17 0 l 1
 737.27 0 l 1
340.97 551.83 m 1
 739.28 551.83 l 1
 739.28 1206.25 l 1
 647.46 1054.55 l 1
 340.97 551.83 l 1
EndSplineSet
EndChar

StartChar: fraction
Encoding: 8260 8260 205
Width: 1099
VWidth: 0
Flags: W
LayerCount: 2
Fore
SplineSet
0 0 m 1
 893.61 1456 l 1
 1099.56 1456 l 1
 207.28 0 l 1
 0 0 l 1
EndSplineSet
EndChar

StartChar: g
Encoding: 103 103 206
Width: 1247
VWidth: 0
Flags: W
LayerCount: 2
Fore
SplineSet
606.13 168.17 m 0
 815.08 168.17 896.55 333.19 896.55 531.24 c 0
 896.55 735.47 800.02 879.81 616.75 879.81 c 0
 427.81 879.81 324.95 721.8 324.95 515.67 c 0
 324.95 303.44 420.49 168.17 606.13 168.17 c 0
223.38 -140.78 m 1
 345.07 -216.5 450.8 -241.47 565.63 -241.47 c 0
 768.18 -241.47 889.18 -143.27 889.18 67.46 c 2
 889.18 245.53 l 1
 923.88 220.84 l 1
 895.62 155.75 815.4 4.02 595.08 4.02 c 0
 304.7 4.02 103.36 201 103.36 513.68 c 0
 103.36 816.2 267.25 1052 585.03 1052 c 0
 790.52 1052 889.6 922.78 925.17 820.11 c 1
 889.52 799.06 l 1
 891.83 1026 l 1
 1112.78 1026 l 1
 1112.78 1026 1098.74 867.05 1098.74 720.74 c 2
 1098.74 143.04 l 2
 1098.74 -148.96 975.11 -416.99 576.67 -416.99 c 0
 437.7 -416.99 312.67 -387.99 188.33 -324.98 c 1
 223.38 -140.78 l 1
EndSplineSet
EndChar

StartChar: gcedilla
Encoding: 291 291 208
Width: 1241
VWidth: 0
Flags: W
LayerCount: 2
Fore
SplineSet
550 -422 m 0
 418 -422 292 -396 182 -340 c 1
 201 -187 l 1
 306 -252 427 -282 538 -282 c 0
 773 -282 912 -180 912 49 c 2
 912 176 l 1
 833 60 705 0 560 0 c 0
 265 0 91 205 91 511 c 0
 91 803 251 1051 572 1051 c 0
 727 1051 833 992 912 885 c 1
 913 932 918 1026 918 1026 c 1
 1083 1026 l 1
 1083 1026 1077 857 1077 773 c 2
 1077 147 l 2
 1077 -124 999 -422 550 -422 c 0
590 135 m 0
 831 135 912 340 912 550 c 0
 912 753 790 917 593 917 c 0
 376 917 265 729 265 515 c 0
 265 284 348 135 590 135 c 0
480 1162 m 1
 643 1625 l 1
 774 1625 l 1
 667 1162 l 1
 480 1162 l 1
EndSplineSet
EndChar

StartChar: germandbls
Encoding: 223 223 211
Width: 1256
VWidth: 0
Flags: W
LayerCount: 2
Fore
SplineSet
816.082777403 -22.33 m 0
 635.772777403 -22.33 489.762777403 37 489.762777403 37 c 1
 525.482777403 202.52 l 1
 525.482777403 202.52 675.442777403 135.82 798.692777403 148.53 c 0
 886.592777403 157.56 957.762777403 216.12 957.762777403 332.35 c 0
 957.762777403 506.54 817.402777403 615.1 563.382777403 733.83 c 1
 563.382777403 892.03 l 1
 718.662777403 956.88 801.142777403 1042.63 801.142777403 1162.89 c 0
 801.142777403 1263.13 721.462777403 1323.71 605.682777403 1323.71 c 0
 451.512777403 1323.71 365.812777403 1202.55 365.812777403 1015.89 c 2
 365.812777403 0 l 1
 158.592777403 0 l 1
 156.582777403 1014.57 l 2
 155.912777403 1327.66 328.652777403 1492.24 605.342777403 1492.24 c 0
 861.012777403 1492.24 1026.4427774 1362.23 1026.4427774 1171.93 c 0
 1026.4427774 1032.41 951.832777403 923.94 804.972777403 852.33 c 0
 784.202777403 841.61 748.902777403 826.97 726.122777403 820.27 c 1
 749.572777403 814.91 786.232777403 802.26 809.682777403 794.22 c 0
 1007.6327774 717.61 1187.0727774 583.9 1187.0727774 348.37 c 0
 1187.0727774 120.67 1016.4427774 -22.33 816.082777403 -22.33 c 0
EndSplineSet
EndChar

StartChar: grave
Encoding: 96 96 212
Width: 602
VWidth: 0
Flags: W
LayerCount: 2
Fore
SplineSet
362.49 1169.32 m 1
 19.77 1485.97 l 1
 293.4 1485.97 l 1
 548.44 1169.32 l 1
 362.49 1169.32 l 1
EndSplineSet
EndChar

StartChar: greater
Encoding: 62 62 213
Width: 1326
VWidth: 0
Flags: W
LayerCount: 2
Fore
SplineSet
214 55.89 m 1
 214 254.78 l 1
 922.41 565.72 l 1
 219 900.64 l 1
 219 1095.52 l 1
 1203.11 611.42 l 1
 1203.11 502.32 l 1
 214 55.89 l 1
EndSplineSet
EndChar

StartChar: greaterequal
Encoding: 8805 8805 214
Width: 1350
VWidth: 0
Flags: W
LayerCount: 2
Fore
SplineSet
148.32 0 m 1
 148.32 158.18 l 1
 1164.68 158.18 l 1
 1164.68 0 l 1
 148.32 0 l 1
160.97 1271.13 m 1
 1144.41 801.77 l 1
 1144.41 698.03 l 1
 156.64 234.18 l 1
 156.64 430.39 l 1
 870.38 750.38 l 1
 160.97 1078.26 l 1
 160.97 1271.13 l 1
EndSplineSet
EndChar

StartChar: guillemotleft
Encoding: 171 171 215
Width: 1143
VWidth: 0
Flags: W
LayerCount: 2
Fore
SplineSet
405.4 164.62 m 1
 131.71 541.99 l 1
 411.07 919.68 l 1
 590.21 919.68 l 1
 346.58 541.32 l 1
 582.21 164.62 l 1
 405.4 164.62 l 1
840.11 164.62 m 1
 566.42 541.99 l 1
 845.78 919.68 l 1
 1024.92 919.68 l 1
 781.29 541.32 l 1
 1016.92 164.62 l 1
 840.11 164.62 l 1
EndSplineSet
EndChar

StartChar: guillemotright
Encoding: 187 187 216
Width: 1143
VWidth: 0
Flags: W
LayerCount: 2
Fore
SplineSet
751.56 918.69 m 1
 1025.25 541.32 l 1
 745.89 163.63 l 1
 566.75 163.63 l 1
 810.38 541.99 l 1
 574.75 918.69 l 1
 751.56 918.69 l 1
316.85 918.69 m 1
 590.54 541.32 l 1
 311.18 163.63 l 1
 132.04 163.63 l 1
 375.67 541.99 l 1
 140.04 918.69 l 1
 316.85 918.69 l 1
EndSplineSet
EndChar

StartChar: guilsinglleft
Encoding: 8249 8249 217
Width: 702
VWidth: 0
Flags: W
LayerCount: 2
Fore
SplineSet
411.69 163.63 m 1
 138 541 l 1
 417.36 918.69 l 1
 596.5 918.69 l 1
 352.87 540.33 l 1
 588.5 163.63 l 1
 411.69 163.63 l 1
EndSplineSet
EndChar

StartChar: guilsinglright
Encoding: 8250 8250 218
Width: 702
VWidth: 0
Flags: W
LayerCount: 2
Fore
SplineSet
290.79 918.02 m 1
 564.48 540.65 l 1
 285.12 162.96 l 1
 105.98 162.96 l 1
 349.61 541.32 l 1
 113.98 918.02 l 1
 290.79 918.02 l 1
EndSplineSet
EndChar

StartChar: h
Encoding: 104 104 219
Width: 1230
VWidth: 0
Flags: W
LayerCount: 2
Fore
SplineSet
157.9 0 m 1
 157.9 1472.57 l 1
 370.14 1472.57 l 1
 370.14 878.1 l 1
 428.11 984.72 573.48 1052 701.31 1052 c 0
 998.29 1052 1085.35 814.62 1085.35 598.48 c 2
 1085.35 0 l 1
 873.11 0 l 1
 873.11 599.2 l 2
 873.11 798.53 807.79 879.81 668.28 879.81 c 0
 516.73 879.81 370.14 757.9 370.14 620.65 c 2
 370.14 0 l 1
 157.9 0 l 1
EndSplineSet
EndChar

StartChar: hbar
Encoding: 295 295 220
Width: 1195
VWidth: 0
Flags: W
LayerCount: 2
Fore
SplineSet
-19.77 1178.98 m 1
 -20.1 1324.37 l 1
 581.72 1324.37 l 1
 582.05 1178.98 l 1
 -19.77 1178.98 l 1
EndSplineSet
Refer: 219 104 N 1 0 0 1 0 0 2
EndChar

StartChar: hungarumlaut
Encoding: 733 733 222
Width: 969
VWidth: 0
Flags: W
LayerCount: 2
Fore
SplineSet
96.05 1141.17 m 1
 301.66 1484.32 l 1
 539.3 1484.32 l 1
 248.89 1141.17 l 1
 96.05 1141.17 l 1
396.55 1141.17 m 1
 627.94 1484.32 l 1
 876.3 1484.32 l 1
 554.74 1141.17 l 1
 396.55 1141.17 l 1
EndSplineSet
EndChar

StartChar: hyphen
Encoding: 45 45 223
Width: 705
VWidth: 0
Flags: W
LayerCount: 2
Fore
SplineSet
58.64 473.56 m 1
 58.64 638.06 l 1
 647.26 638.06 l 1
 647.26 473.56 l 1
 58.64 473.56 l 1
EndSplineSet
EndChar

StartChar: i
Encoding: 105 105 224
Width: 523
VWidth: 0
Flags: W
LayerCount: 2
Fore
SplineSet
159.24 0 m 1
 159.24 1026 l 1
 366.79 1026 l 1
 366.79 0 l 1
 159.24 0 l 1
159.24 1264.82 m 1
 159.24 1456 l 1
 366.79 1456 l 1
 366.79 1264.82 l 1
 159.24 1264.82 l 1
EndSplineSet
EndChar

StartChar: infinity
Encoding: 8734 8734 232
Width: 1734
VWidth: 0
Flags: W
LayerCount: 2
Fore
SplineSet
464.02 233.32 m 0
 245.34 233.32 96 411.01 96 620.04 c 0
 96 809.73 267.34 961.42 459.02 961.42 c 0
 623.36 961.42 752.7 864.1 870.04 707.41 c 1
 981.71 860.1 1103.38 961.42 1273.39 961.42 c 0
 1494.4 961.42 1635.74 810.73 1635.74 601.7 c 0
 1635.74 383.34 1466.4 233.32 1271.39 233.32 c 0
 1122.05 233.32 1001.38 313.97 868.04 486.66 c 1
 752.7 335.64 625.36 233.32 464.02 233.32 c 0
475.06 372.42 m 0
 601.38 372.42 707.04 473.4 796.36 595.7 c 1
 707.04 724 601.38 823.64 465.06 823.64 c 0
 324.74 823.64 248.78 720.67 248.78 598.03 c 0
 248.78 483.73 334.74 372.42 475.06 372.42 c 0
1273.05 372.42 m 0
 1420.37 372.42 1480.66 482.73 1480.66 623.36 c 0
 1480.66 731.33 1397.37 823.64 1268.05 823.64 c 0
 1139.4 823.64 1026.74 714.67 945.08 598.03 c 1
 1062.07 451.07 1152.73 372.42 1273.05 372.42 c 0
EndSplineSet
EndChar

StartChar: integral
Encoding: 8747 8747 233
Width: 779
VWidth: 0
Flags: W
LayerCount: 2
Fore
SplineSet
182.83 -313.07 m 0
 85.1 -313.07 26.06 -288.72 26.06 -288.72 c 1
 26.06 -126.22 l 1
 26.06 -126.22 97.47 -141.89 154.83 -141.89 c 0
 261.35 -141.89 280.32 -75.94 280.32 45.63 c 2
 280.32 1175.88 l 2
 280.32 1394.56 363.07 1556.57 591.41 1556.57 c 0
 681.43 1556.57 746.88 1532.89 746.88 1532.89 c 1
 746.88 1365.7 l 1
 746.88 1365.7 682.11 1384.72 625.44 1384.72 c 0
 516.24 1384.72 493.9 1319.44 493.9 1197.87 c 2
 493.9 66.95 l 2
 493.9 -151.73 412.51 -313.07 182.83 -313.07 c 0
EndSplineSet
EndChar

StartChar: j
Encoding: 106 106 236
Width: 554
VWidth: 0
Flags: W
LayerCount: 2
Fore
SplineSet
68.43 -388.23 m 0
 330.77 -388.23 404.65 -245.6 404.65 9.14 c 2
 404.65 1026 l 1
 193.08 1026 l 1
 193.08 14.78 l 2
 193.08 -178.49 152.65 -230.07 44.78 -230.07 c 0
 -20.23 -230.07 -82.57 -211.41 -82.57 -211.41 c 1
 -100.92 -365.56 l 1
 -84.42 -369.85 -14.74 -388.23 68.43 -388.23 c 0
193.08 1264.82 m 1
 404.65 1264.82 l 1
 404.65 1456 l 1
 193.08 1456 l 1
 193.08 1264.82 l 1
EndSplineSet
EndChar

StartChar: k
Encoding: 107 107 238
Width: 1084
VWidth: 0
Flags: W
LayerCount: 2
Fore
SplineSet
157.9 0 m 1
 157.9 1472.57 l 1
 370.14 1472.57 l 1
 370.14 598.39 l 1
 782.2 1026 l 1
 1074.2 1026 l 1
 567.32 535.3 l 1
 1108.85 0 l 1
 826.87 0 l 1
 370.14 468.17 l 1
 370.14 0 l 1
 157.9 0 l 1
EndSplineSet
EndChar

StartChar: kgreenlandic
Encoding: 312 312 240
Width: 1082
VWidth: 0
Flags: W
LayerCount: 2
Fore
SplineSet
159.24 0 m 1
 159.24 1026 l 1
 371.14 1026 l 1
 371.14 597.87 l 1
 773.49 1026 l 1
 1062.81 1026 l 1
 543.53 509.99 l 1
 822.32 254.23 800.58 271.17 1098.8 0 c 1
 816.82 0 l 1
 371.14 422.76 l 1
 371.14 0 l 1
 159.24 0 l 1
EndSplineSet
EndChar

StartChar: l
Encoding: 108 108 241
Width: 524
VWidth: 0
Flags: W
LayerCount: 2
Fore
SplineSet
159.24 0 m 1
 159.24 1472.57 l 1
 370.14 1472.57 l 1
 370.14 0 l 1
 159.24 0 l 1
EndSplineSet
EndChar

StartChar: less
Encoding: 60 60 245
Width: 1325
VWidth: 0
Flags: W
LayerCount: 2
Fore
SplineSet
1106.94 53.88 m 1
 123.5 523.24 l 1
 123.5 626.98 l 1
 1111.27 1090.83 l 1
 1111.27 894.62 l 1
 397.53 574.63 l 1
 1106.94 246.75 l 1
 1106.94 53.88 l 1
EndSplineSet
EndChar

StartChar: lessequal
Encoding: 8804 8804 246
Width: 1350
VWidth: 0
Flags: W
LayerCount: 2
Fore
SplineSet
1135.45 234.85 m 1
 152.01 704.21 l 1
 152.01 807.95 l 1
 1139.78 1271.8 l 1
 1139.78 1075.59 l 1
 426.04 755.6 l 1
 1135.45 427.72 l 1
 1135.45 234.85 l 1
139.08 0 m 1
 139.08 158.18 l 1
 1155.44 158.18 l 1
 1155.44 0 l 1
 139.08 0 l 1
EndSplineSet
EndChar

StartChar: logicalnot
Encoding: 172 172 247
Width: 1460
VWidth: 0
Flags: W
LayerCount: 2
Fore
SplineSet
1042.35 227.95 m 1
 1042.35 630.19 l 1
 181.87 630.19 l 1
 181.87 807.38 l 1
 1239.92 807.38 l 1
 1239.92 227.95 l 1
 1042.35 227.95 l 1
EndSplineSet
EndChar

StartChar: lozenge
Encoding: 9674 9674 249
Width: 1248
VWidth: 0
Flags: W
LayerCount: 2
Fore
SplineSet
602.27 171.7 m 1
 920.04 703.63 l 1
 610.26 1226.85 l 1
 292.49 704.29 l 1
 602.27 171.7 l 1
532.52 -41.65 m 1
 88.55 703.63 l 1
 539.18 1451.24 l 1
 678.34 1451.24 l 1
 1125.31 704.63 l 1
 670.68 -41.65 l 1
 532.52 -41.65 l 1
EndSplineSet
EndChar

StartChar: lslash
Encoding: 322 322 250
Width: 503
VWidth: 0
Flags: W
LayerCount: 2
Fore
SplineSet
139.19 0 m 1
 139.19 710.44 l 1
 4.02 610.44 l 1
 4.02 794.34 l 1
 138.52 894.34 l 1
 138.52 1472.57 l 1
 351.76 1472.57 l 1
 351.76 1042.25 l 1
 483.23 1140.57 l 1
 483.23 954.99 l 1
 352.43 854.33 l 1
 352.43 0 l 1
 139.19 0 l 1
EndSplineSet
EndChar

StartChar: m
Encoding: 109 109 251
Width: 1860
VWidth: 0
Flags: W
LayerCount: 2
Fore
SplineSet
169.93 0 m 1
 169.93 723.48 l 2
 169.93 861.07 159.89 952.68 156.56 1026 c 1
 378.82 1026 l 1
 378.82 873.46 l 1
 431.13 983.66 561.34 1052 689.99 1052 c 0
 824.93 1052 942.61 978.76 997.32 843.13 c 1
 1071.99 966.69 1192.88 1052 1353.17 1052 c 0
 1594.61 1052 1714.27 887.64 1714.27 629.33 c 2
 1714.27 0 l 1
 1502.03 0 l 1
 1502.03 611.35 l 2
 1502.03 762 1457.13 879.81 1332.18 879.81 c 0
 1179.84 879.81 1050.71 740.45 1050.71 583.65 c 2
 1050.71 0 l 1
 838.47 0 l 1
 838.47 630.31 l 2
 838.47 755.07 796.6 879.81 654.98 879.81 c 0
 499.4 879.81 382.17 750.93 382.17 614.06 c 2
 382.17 0 l 1
 169.93 0 l 1
EndSplineSet
EndChar

StartChar: macron
Encoding: 175 175 252
Width: 735
VWidth: 0
Flags: W
LayerCount: 2
Fore
SplineSet
66.99 1297.21 m 1
 66.99 1456 l 1
 668.81 1456 l 1
 668.81 1297.21 l 1
 66.99 1297.21 l 1
EndSplineSet
EndChar

StartChar: middot
Encoding: 183 183 253
Width: 509
VWidth: 0
Flags: W
LayerCount: 2
Fore
SplineSet
146 513 m 1
 146 723 l 1
 363 723 l 1
 363 513 l 1
 146 513 l 1
EndSplineSet
EndChar

StartChar: minus
Encoding: 8722 8722 254
Width: 1379
VWidth: 0
Flags: W
LayerCount: 2
Fore
SplineSet
185.77 374.73 m 1
 185.77 548.58 l 1
 1193.36 548.58 l 1
 1193.36 374.73 l 1
 185.77 374.73 l 1
EndSplineSet
EndChar

StartChar: multiply
Encoding: 215 215 255
Width: 1248
VWidth: 0
Flags: W
LayerCount: 2
Fore
SplineSet
343.49 132.56 m 1
 206.99 269.06 l 1
 487.58 549.98 l 1
 206.99 830.9 l 1
 343.49 967.4 l 1
 624.41 686.48 l 1
 905.67 967.4 l 1
 1041.83 831.24 l 1
 760.24 549.98 l 1
 1041.83 268.72 l 1
 905.67 132.56 l 1
 624.41 413.15 l 1
 343.49 132.56 l 1
EndSplineSet
EndChar

StartChar: n
Encoding: 110 110 256
Width: 1234
VWidth: 0
Flags: W
LayerCount: 2
Fore
SplineSet
169.26 0 m 1
 169.26 696.59 l 2
 169.26 889.27 155.22 1026 155.22 1026 c 1
 378.15 1026 l 1
 378.15 878.07 l 1
 450.84 991.41 588.84 1052 710.69 1052 c 0
 968.15 1052 1091.35 900.28 1091.35 570.1 c 2
 1091.35 0 l 1
 879.11 0 l 1
 879.11 571.87 l 2
 879.11 775.39 835.05 879.81 668.63 879.81 c 0
 531.27 879.81 381.83 756.74 381.5 630.56 c 2
 381.5 0 l 1
 169.26 0 l 1
EndSplineSet
EndChar

StartChar: nine
Encoding: 57 57 260
Width: 1249
VWidth: 0
Flags: W
LayerCount: 2
Fore
SplineSet
557.36 -24.67 m 0
 444.39 -24.67 325.65 4.36 192.28 71.7 c 1
 265.74 246.58 l 1
 360.32 190.26 451.68 164.87 540.34 164.87 c 0
 736.52 164.87 884.58 313.36 884.58 640.92 c 2
 884.58 683.81 l 1
 818.23 571.19 703.55 528.59 573.71 528.59 c 0
 293.68 528.59 121.94 720.93 121.94 996.63 c 0
 121.94 1272.32 305.34 1483 607.37 1483 c 0
 929.38 1483 1102.48 1237.03 1102.48 771.99 c 0
 1102.48 261.29 889.88 -24.67 557.36 -24.67 c 0
342.51 1001.96 m 0
 342.51 837.05 419.51 710.45 599.04 710.45 c 0
 760.63 710.45 876.6 814.39 876.6 1005.07 c 0
 876.6 1156.62 785.27 1295.14 610.09 1295.14 c 0
 443.5 1295.14 342.51 1173.22 342.51 1001.96 c 0
EndSplineSet
EndChar

StartChar: notequal
Encoding: 8800 8800 261
Width: 1372
VWidth: 0
Flags: W
LayerCount: 2
Fore
SplineSet
488.8 39.97 m 1
 325.26 65.34 l 1
 443.21 310.93 l 1
 161.65 310.93 l 1
 161.65 469.79 l 1
 524.31 469.79 l 1
 642.5 696.51 l 1
 161.65 696.51 l 1
 161.65 856.37 l 1
 718.93 856.37 l 1
 849.57 1122.33 l 1
 1018.12 1097.63 l 1
 898.49 856.37 l 1
 1210.45 856.37 l 1
 1210.45 696.51 l 1
 822.4 696.51 l 1
 701.87 469.79 l 1
 1210.45 469.79 l 1
 1210.45 310.93 l 1
 623.44 310.93 l 1
 488.8 39.97 l 1
EndSplineSet
EndChar

StartChar: o
Encoding: 111 111 263
Width: 1269
VWidth: 0
Flags: W
LayerCount: 2
Fore
SplineSet
637.37 149.52 m 0
 847.64 149.52 943.84 306.88 943.84 513.68 c 0
 943.84 724.49 842.96 879.81 636.05 879.81 c 0
 428.48 879.81 325.6 724.49 325.6 513.02 c 0
 325.6 306.55 424.79 149.52 637.37 149.52 c 0
638.06 -22.67 m 0
 289.27 -22.67 103.36 209.13 103.36 512.34 c 0
 103.36 821.56 293.62 1052 639.38 1052 c 0
 987.19 1052 1166.08 822.9 1166.08 511.66 c 0
 1166.08 211.47 981.5 -22.67 638.06 -22.67 c 0
EndSplineSet
EndChar

StartChar: oe
Encoding: 339 339 268
Width: 1988
VWidth: 0
Flags: W
LayerCount: 2
Fore
SplineSet
1129.13 627.09 m 1
 1660.38 627.09 l 1
 1660.38 630.39 1660.38 635.03 1660.05 638.33 c 0
 1643.05 776.26 1545.08 879.81 1403.57 879.81 c 0
 1253.74 879.81 1150.18 758.61 1129.13 627.09 c 1
632.73 149.52 m 0
 828.25 149.52 914.85 318.43 914.85 511 c 0
 914.85 719.56 829.93 879.81 625.4 879.81 c 0
 426.2 879.81 319.93 716.56 319.6 507.67 c 0
 319.27 312.1 416.21 149.52 632.73 149.52 c 0
628.41 -22 m 0
 291.09 -22 97.36 205.97 97.36 510.34 c 0
 97.36 812.03 282.72 1052 626.7 1052 c 0
 818.68 1052 947.67 966.38 1022.98 843.86 c 1
 1100 975.42 1215.92 1054.01 1402.94 1054.01 c 0
 1696.94 1054.01 1860.98 834.33 1860.98 513.57 c 2
 1860.98 457.83 l 1
 1127.79 457.83 l 1
 1128.46 453.14 1128.46 431.24 1129.13 427.22 c 0
 1145.18 261.03 1264.06 149.52 1455.35 149.52 c 0
 1651.19 149.52 1774.34 256.21 1774.34 256.21 c 1
 1836.05 100.05 l 1
 1836.05 100.05 1699.23 -22 1432.31 -22 c 0
 1264.04 -22 1093.03 60.6 1022 191.12 c 1
 956 59.96 796.65 -22 628.41 -22 c 0
EndSplineSet
EndChar

StartChar: ogonek
Encoding: 731 731 269
Width: 508
VWidth: 0
Flags: W
LayerCount: 2
Fore
SplineSet
251.26 -379.28 m 0
 126.58 -379.28 33.26 -331.67 33.26 -231.7 c 0
 33.26 -103.57 175.44 -27.26 265.01 17.36 c 1
 393.34 13.4 l 1
 291.75 -46.88 223.17 -125.28 223.17 -182.92 c 0
 223.17 -227.56 263.11 -246.83 307.09 -246.83 c 0
 367.42 -246.83 432.22 -226.11 469.13 -213.82 c 1
 469.13 -343.58 l 1
 400.99 -365.61 319.3 -379.28 251.26 -379.28 c 0
EndSplineSet
EndChar

StartChar: one
Encoding: 49 49 273
Width: 1248
VWidth: 0
Flags: W
LayerCount: 2
Fore
SplineSet
287.04 0 m 1
 287.04 175.83 l 1
 555.32 175.83 l 1
 555.32 1226.81 l 1
 478.38 1186.53 369.71 1142.85 261.01 1104.86 c 1
 261.01 1303.07 l 1
 365.69 1338.4 502.6 1404.35 591.6 1456 c 1
 774.22 1456 l 1
 774.22 173.82 l 1
 1037.21 173.82 l 1
 1037.21 0 l 1
 287.04 0 l 1
EndSplineSet
EndChar

StartChar: onesuperior
Encoding: 185 185 274
Width: 1009
VWidth: 0
Flags: W
LayerCount: 2
Fore
SplineSet
278.59 615.39 m 1
 278.59 758.51 l 1
 452.18 758.51 l 1
 452.18 881.27 451.85 1237.99 451.85 1270.33 c 1
 437.66 1262.74 275.8 1217.64 258.31 1211.04 c 1
 258.64 1362.48 l 1
 281.74 1370.07 467.74 1432.24 482.92 1441.48 c 1
 617.4 1446.43 l 1
 617.4 756.18 l 1
 774.91 756.18 l 1
 774.91 615.39 l 1
 278.59 615.39 l 1
EndSplineSet
EndChar

StartChar: ordfeminine
Encoding: 170 170 275
Width: 824
VWidth: 0
Flags: W
LayerCount: 2
Fore
SplineSet
339.39 742.2 m 0
 455.81 742.2 530.44 805.96 556.05 865.59 c 1
 567.75 768.91 l 1
 726.56 768.91 l 1
 722.57 815.73 719.56 840.37 718.22 911.65 c 0
 717.55 952.52 717.54 1113.39 717.54 1207.19 c 0
 717.54 1408.66 582.82 1478 426.78 1478 c 0
 252.71 1478 132.37 1409.66 132.37 1409.66 c 1
 181.1 1287.86 l 1
 181.1 1287.86 299.79 1341.19 411.4 1341.19 c 0
 499.29 1341.19 548.35 1303.57 548.35 1201.3 c 2
 548.35 1165.59 l 1
 372.67 1165.59 l 2
 188.04 1165.59 98.06 1086.59 98.06 953.89 c 0
 98.06 817.84 208.11 742.2 339.39 742.2 c 0
353.72 858.62 m 0
 296.16 858.62 248.84 893.6 248.84 956.21 c 0
 248.84 1065.82 330.37 1068.18 547.01 1068.18 c 1
 547.01 1067.51 547.01 1049.88 547.01 1049.21 c 0
 547.01 925.82 451.88 858.62 353.72 858.62 c 0
EndSplineSet
EndChar

StartChar: ordmasculine
Encoding: 186 186 276
Width: 897
VWidth: 0
Flags: W
LayerCount: 2
Fore
SplineSet
450.71 877.3 m 0
 573.32 877.3 652.3 962.27 652.3 1092.88 c 0
 652.3 1231.16 573.32 1313.79 450.39 1313.79 c 0
 329.45 1313.79 247.46 1228.82 247.46 1096.21 c 0
 247.46 959.6 322.11 877.3 450.71 877.3 c 0
452.39 735.51 m 0
 204.01 735.51 75.32 892.85 75.32 1098.54 c 0
 75.32 1298.89 212.35 1456.57 450.05 1456.57 c 0
 690.08 1456.57 822.45 1295.88 822.45 1094.87 c 0
 822.45 898.19 690.76 735.51 452.39 735.51 c 0
EndSplineSet
EndChar

StartChar: p
Encoding: 112 112 278
Width: 1265
VWidth: 0
Flags: W
LayerCount: 2
Fore
SplineSet
169.93 -408.91 m 1
 169.93 713.78 l 2
 169.93 799.93 162.24 921.64 155.9 1026 c 1
 380.16 1026 l 1
 380.16 861.45 l 1
 409.38 951.92 541.93 1052 707.42 1052 c 0
 989.07 1052 1163.03 822.2 1163.03 525.66 c 0
 1163.03 223.17 988.09 -22.67 701.04 -22.67 c 0
 531.63 -22.67 405.73 77.08 380.16 153.25 c 1
 380.16 -408.91 l 1
 169.93 -408.91 l 1
658.94 149.52 m 0
 849.6 149.52 940.79 308.2 940.79 516.98 c 0
 940.79 725.81 846.24 879.81 660.92 879.81 c 0
 471.31 879.81 372.12 722.51 372.12 508.07 c 0
 372.12 304.9 466.63 149.52 658.94 149.52 c 0
EndSplineSet
EndChar

StartChar: paragraph
Encoding: 182 182 279
Width: 1217
VWidth: 0
Flags: W
LayerCount: 2
Fore
SplineSet
445.83 -178.33 m 1
 445.83 802.91 l 1
 244.73 813.96 109.9 929.33 109.9 1131.65 c 0
 109.9 1388.68 305.6 1455.33 583.27 1455.33 c 2
 1052.77 1455.33 l 1
 1052.77 1292.47 l 1
 968.45 1292.47 l 1
 968.45 -178.33 l 1
 798.91 -178.33 l 1
 798.91 1292.47 l 1
 615.37 1292.47 l 1
 615.37 -178.33 l 1
 445.83 -178.33 l 1
EndSplineSet
EndChar

StartChar: parenleft
Encoding: 40 40 280
Width: 658
VWidth: 0
Flags: W
LayerCount: 2
Fore
SplineSet
409.31 -171.99 m 1
 250.96 69.03 129.26 368.73 129.26 664.01 c 0
 129.26 973.63 236.63 1252.67 402.96 1516 c 1
 609.2 1516 l 1
 438.85 1247.32 341.17 951.59 341.17 663.66 c 0
 341.17 396.39 450.2 83.7 609.53 -171.99 c 1
 409.31 -171.99 l 1
EndSplineSet
EndChar

StartChar: parenright
Encoding: 41 41 281
Width: 658
VWidth: 0
Flags: W
LayerCount: 2
Fore
SplineSet
250.23 1496 m 1
 408.58 1254.98 530.28 955.28 530.28 660 c 0
 530.28 350.38 422.91 71.34 256.58 -191.99 c 1
 50.34 -191.99 l 1
 220.69 76.69 318.37 372.42 318.37 660.35 c 0
 318.37 927.62 209.34 1240.31 50.01 1496 c 1
 250.23 1496 l 1
EndSplineSet
EndChar

StartChar: partialdiff
Encoding: 8706 8706 282
Width: 1162
VWidth: 0
Flags: W
LayerCount: 2
Fore
SplineSet
483.63 -24 m 0
 877.32 -24 1066.97 410.96 1066.97 835.92 c 0
 1066.97 1302.91 878.29 1511.56 571.59 1511.56 c 0
 454.25 1511.56 334.88 1472.22 250.19 1412.52 c 1
 263.2 1254.71 l 1
 323.12 1290.63 429.81 1340.71 553.28 1340.71 c 0
 727.1 1340.71 840.36 1189.54 847.06 945.84 c 0
 847.73 930.55 847.4 869.84 847.4 856.2 c 1
 818.44 922.83 722.45 1002 577.64072 1002 c 0
 293.94 1002 61.9 748.67 61.9 424.69 c 0
 61.9 171.34 205.59 -24 483.63 -24 c 0
484.62 149.86 m 0
 357.73 149.86 279.14 257.46 279.14 421.02 c 0
 279.14 641.91 416.38 832.82 594.6 832.82 c 0
 705.13 832.82 793.41 743.21 831.07 648.97 c 1
 786.02 311.78 667.7 149.86 484.62 149.86 c 0
EndSplineSet
EndChar

StartChar: percent
Encoding: 37 37 283
Width: 1819
VWidth: 0
Flags: W
LayerCount: 2
Fore
SplineSet
447.45 865.37 m 0
 568 865.37 618.69 952.54 618.69 1103.93 c 0
 618.69 1250.6 572.36 1341.84 447.78 1341.84 c 0
 321.88 1341.84 275.55 1246.97 275.55 1102.61 c 0
 275.55 949.24 326.9 865.37 447.45 865.37 c 0
446.13 727.58 m 0
 222.46 727.58 93.36 875.52 93.36 1102.28 c 0
 93.36 1323.03 224.76 1479.3 448.11 1479.3 c 0
 673.11 1479.3 800.55 1326 800.55 1103.6 c 0
 800.55 877.5 668.48 727.58 446.13 727.58 c 0
364.81 0 m 1
 1288.19 1456 l 1
 1466.69 1456 l 1
 542.31 0 l 1
 364.81 0 l 1
1373.07 114.81 m 0
 1493.95 114.81 1544.31 202.31 1544.31 353.7 c 0
 1544.31 500.37 1498.64 591.28 1373.73 591.28 c 0
 1247.17 591.28 1201.5 495.75 1201.5 351.39 c 0
 1201.5 198.68 1252.52 114.81 1373.07 114.81 c 0
1372.08 -22.98 m 0
 1149.07 -22.98 1019.31 138.69 1019.31 351.72 c 0
 1019.31 559.4 1150.71 729.07 1374.06 729.07 c 0
 1599.06 729.07 1726.5 562.04 1726.5 353.37 c 0
 1726.5 140.34 1594.43 -22.98 1372.08 -22.98 c 0
EndSplineSet
EndChar

StartChar: period
Encoding: 46 46 284
Width: 541
VWidth: 0
Flags: W
LayerCount: 2
Fore
SplineSet
133.85 0 m 1
 133.85 244.84 l 1
 392.39 244.84 l 1
 392.39 0 l 1
 133.85 0 l 1
EndSplineSet
EndChar

StartChar: periodcentered
Encoding: 183 183 285
Width: 529
VWidth: 0
Flags: W
LayerCount: 2
Fore
SplineSet
135.44 535.78 m 1
 135.44 780.62 l 1
 393.98 780.62 l 1
 393.98 535.78 l 1
 135.44 535.78 l 1
EndSplineSet
EndChar

StartChar: perthousand
Encoding: 8240 8240 286
Width: 2649
VWidth: 0
Flags: W
LayerCount: 2
Fore
SplineSet
2201.26 -22.98 m 0
 1978.25 -22.98 1848.49 138.69 1848.49 351.72 c 0
 1848.49 559.4 1979.89 729.07 2203.24 729.07 c 0
 2428.24 729.07 2555.68 562.04 2555.68 353.37 c 0
 2555.68 140.34 2423.61 -22.98 2201.26 -22.98 c 0
2202.25 114.81 m 0
 2323.13 114.81 2373.49 202.31 2373.49 353.7 c 0
 2373.49 500.37 2327.82 591.28 2202.91 591.28 c 0
 2076.35 591.28 2030.68 495.75 2030.68 351.39 c 0
 2030.68 198.68 2081.7 114.81 2202.25 114.81 c 0
EndSplineSet
Refer: 283 37 N 1 0 0 1 0 0 2
EndChar

StartChar: pi
Encoding: 960 960 287
Width: 1288
VWidth: 0
Flags: W
LayerCount: 2
Fore
SplineSet
1055.62 -14.7 m 0
 900.94 -14.7 814.1 65.97 814.1 270.98 c 2
 814.1 866.53 l 1
 516.61 866.53 l 1
 516.61 866.53 486.09 150.85 389.79 0 c 1
 176.56 0 l 1
 279.53 166.44 309.45 559.36 322.74 866.53 c 1
 203.73 863.53 115.79 838.16 69.25 805.86 c 1
 52.25 963 l 1
 98.49 1001.6 196.47 1026 347.01 1026 c 2
 1214 1026 l 1
 1214 866.53 l 1
 1011.65 866.53 l 1
 1011.65 298.18 l 2
 1011.65 238.51 1012.65 154.49 1108.99 154.49 c 0
 1129.66 154.49 1156.66 158.49 1188.33 167.49 c 1
 1187.33 147.49 1185.33 107.39 1185.33 87.72 c 0
 1185.33 56.72 1188.33 30.97 1198 -0.7 c 1
 1146.66 -9.7 1094.29 -14.7 1055.62 -14.7 c 0
EndSplineSet
EndChar

StartChar: plus
Encoding: 43 43 288
Width: 1230
VWidth: 0
Flags: W
LayerCount: 2
Fore
SplineSet
515.34 91.9 m 1
 515.34 497.48 l 1
 133.36 497.48 l 1
 133.36 675.34 l 1
 516.68 675.34 l 1
 516.68 1073.65 l 1
 713.91 1073.65 l 1
 713.91 675.34 l 1
 1097.22 675.34 l 1
 1097.22 497.48 l 1
 713.57 497.48 l 1
 713.57 91.9 l 1
 515.34 91.9 l 1
EndSplineSet
EndChar

StartChar: plusminus
Encoding: 177 177 289
Width: 1249
VWidth: 0
Flags: W
LayerCount: 2
Fore
SplineSet
524.6 270.47 m 1
 524.6 592.99 l 1
 192.32 592.99 l 1
 192.32 767.17 l 1
 520.59 767.17 l 1
 520.59 1093.7 l 1
 719.84 1093.7 l 1
 719.84 767.17 l 1
 1053.5 767.17 l 1
 1053.5 592.99 l 1
 727.19 592.99 l 1
 727.19 270.47 l 1
 524.6 270.47 l 1
186.36 0 m 1
 186.36 157.48 l 1
 1067.42 157.48 l 1
 1067.42 0 l 1
 186.36 0 l 1
EndSplineSet
EndChar

StartChar: product
Encoding: 8719 8719 290
Width: 1568
VWidth: 0
Flags: W
LayerCount: 2
Fore
SplineSet
228.22 -100 m 1
 228.22 1278.84 l 1
 76.49 1278.84 l 1
 75.83 1456 l 1
 1449.3 1456 l 1
 1450.64 1278.84 l 1
 1321.64 1278.84 l 1
 1321.64 -100 l 1
 1084.68 -100 l 1
 1084.68 1278.84 l 1
 459.5 1278.84 l 1
 459.5 -100 l 1
 228.22 -100 l 1
EndSplineSet
EndChar

StartChar: q
Encoding: 113 113 291
Width: 1253
VWidth: 0
Flags: W
LayerCount: 2
Fore
SplineSet
885.22 -408.91 m 1
 885.22 120.74 l 1
 818.44 45.13 711.8 -22.67 579.72 -22.67 c 0
 272.57 -22.67 102.02 220.53 102.02 518.73 c 0
 102.02 819.56 279.63 1052 584.7 1052 c 0
 701.85 1052 813.82 996.43 886.56 897.79 c 1
 886.56 1026 l 1
 1104.46 1026 l 1
 1099.77 964.36 1095.45 823.05 1095.45 765.43 c 2
 1095.45 -408.91 l 1
 885.22 -408.91 l 1
606.77 149.52 m 0
 801.06 149.52 893.26 309.19 893.26 522.59 c 0
 893.26 727.13 796.38 879.81 610.4 879.81 c 0
 421.12 879.81 324.26 724.16 324.26 512.36 c 0
 324.26 306.55 415.78 149.52 606.77 149.52 c 0
EndSplineSet
EndChar

StartChar: question
Encoding: 63 63 292
Width: 1041
VWidth: 0
Flags: W
LayerCount: 2
Fore
SplineSet
328.87 392.79 m 1
 328.87 532.77 l 2
 328.87 786.49 693.44 905.1 693.44 1120.31 c 0
 693.44 1247.86 591.19 1297.14 463.62 1297.14 c 0
 343.97 1297.14 217.91 1250.82 169.24 1226.83 c 1
 169.24 1412.01 l 1
 218.01 1436.23 339.32 1482.02 485.63 1482.02 c 0
 722.59 1482.02 913.36 1366.01 913.36 1127.64 c 0
 913.36 826.867303461 499.73 732.8 499.73 476.66 c 2
 499.73 392.79 l 1
 328.87 392.79 l 1
294.54 -3.63 m 1
 294.54 241.21 l 1
 553.08 241.21 l 1
 553.08 -3.63 l 1
 294.54 -3.63 l 1
EndSplineSet
EndChar

StartChar: quotedbl
Encoding: 34 34 294
Width: 753
VWidth: 0
Flags: W
LayerCount: 2
Fore
SplineSet
155.73 959.98 m 1
 108.36 1456 l 1
 322.19 1456 l 1
 282.45 959.98 l 1
 155.73 959.98 l 1
479.19 959.98 m 1
 431.82 1456 l 1
 645.65 1456 l 1
 605.91 959.98 l 1
 479.19 959.98 l 1
EndSplineSet
EndChar

StartChar: quotedblbase
Encoding: 8222 8222 295
Width: 1024
VWidth: 0
Flags: W
LayerCount: 2
Fore
SplineSet
125.74 -227.95 m 1
 234.09 235.84 l 1
 468.35 235.84 l 1
 309.99 -227.95 l 1
 125.74 -227.95 l 1
508.19 -227.95 m 1
 616.88 235.84 l 1
 851.47 235.84 l 1
 688.76 -227.95 l 1
 508.19 -227.95 l 1
EndSplineSet
EndChar

StartChar: quotedblleft
Encoding: 8220 8220 296
Width: 1024
VWidth: 0
Flags: W
LayerCount: 2
Fore
SplineSet
150.2 874.6 m 1
 326.3 1456 l 1
 502.85 1456 l 1
 392.49 874.6 l 1
 150.2 874.6 l 1
564.85 874.6 m 1
 732.92 1456 l 1
 910.14 1456 l 1
 800.78 874.6 l 1
 564.85 874.6 l 1
EndSplineSet
EndChar

StartChar: quotedblright
Encoding: 8221 8221 297
Width: 1024
VWidth: 0
Flags: W
LayerCount: 2
Fore
SplineSet
189.91 874.6 m 1
 297.26 1456 l 1
 532.86 1456 l 1
 368.5 874.6 l 1
 189.91 874.6 l 1
567.5 874.6 m 1
 677.19 1456 l 1
 910.78 1456 l 1
 747.4 874.6 l 1
 567.5 874.6 l 1
EndSplineSet
EndChar

StartChar: quoteleft
Encoding: 8216 8216 298
Width: 540
VWidth: 0
Flags: W
LayerCount: 2
Fore
SplineSet
423.6 874.6 m 1
 284.82 874.6 l 1
 125.44 1456 l 1
 378.32 1456 l 1
 423.6 874.6 l 1
EndSplineSet
EndChar

StartChar: quoteright
Encoding: 8217 8217 299
Width: 574
VWidth: 0
Flags: W
LayerCount: 2
Fore
SplineSet
117.3 875.27 m 1
 198.08 1456 l 1
 448.61 1456 l 1
 273.47 875.27 l 1
 117.3 875.27 l 1
EndSplineSet
EndChar

StartChar: quotesinglbase
Encoding: 8218 8218 300
Width: 634
VWidth: 0
Flags: W
LayerCount: 2
Fore
SplineSet
144.43 -318.05 m 1
 255.79 235.84 l 1
 484.43 235.84 l 1
 325.69 -318.05 l 1
 144.43 -318.05 l 1
EndSplineSet
EndChar

StartChar: quotesingle
Encoding: 39 39 301
Width: 498
VWidth: 0
Flags: W
LayerCount: 2
Fore
SplineSet
187.22 933.18 m 1
 147.89 1456 l 1
 372.44 1456 l 1
 340.74 933.18 l 1
 187.22 933.18 l 1
EndSplineSet
EndChar

StartChar: r
Encoding: 114 114 302
Width: 804
VWidth: 0
Flags: W
LayerCount: 2
Fore
SplineSet
171.93 0 m 1
 171.93 771.63 l 2
 171.93 848.01 157.23 1026 157.23 1026 c 1
 382.16 1026 l 1
 382.16 876.76 l 1
 448.55 985.69 535.47 1051.34 647.11 1051.34 c 0
 680.75 1051.34 716.08 1046.67 751.76 1037.33 c 1
 751.76 850.13 l 1
 717.02 861.16 675.02 869.48 632.73 869.48 c 0
 489.15 869.48 384.17 766.28 384.17 575.37 c 2
 384.17 0 l 1
 171.93 0 l 1
EndSplineSet
EndChar

StartChar: radical
Encoding: 8730 8730 304
Width: 1314
VWidth: 0
Flags: W
LayerCount: 2
Fore
SplineSet
577.5 -146.97 m 1
 260.91 658.51 l 1
 258.9 657.84 95.61 629.17 95.61 629.17 c 1
 61.54 780.03 l 1
 399.42 835.72 l 1
 647.56 168.3 l 1
 1024.38 1571.88 l 1
 1210.66 1571.88 l 1
 752.7 -146.97 l 1
 577.5 -146.97 l 1
EndSplineSet
EndChar

StartChar: registered
Encoding: 174 174 307
Width: 1721
VWidth: 0
Flags: W
LayerCount: 2
Fore
SplineSet
860.64 1483.66 m 0
 445.65 1483.66 106.66 1144.67 106.66 729.68 c 0
 106.66 314.69 445.65 -24.97 860.64 -24.97 c 0
 1275.63 -24.97 1614.95 314.69 1614.95 729.68 c 0
 1614.95 1144.67 1275.63 1483.66 860.64 1483.66 c 0
860.3 82.08 m 0
 509.67 82.08 230.38 376.05 230.38 726.35 c 0
 230.38 1076.98 509.67 1370.95 860.3 1370.95 c 0
 1209.93 1370.95 1489.89 1076.98 1489.89 726.35 c 0
 1489.89 376.05 1209.93 82.08 860.3 82.08 c 0
718.44 781.71 m 1
 718.44 1032.47 l 1
 831.08 1032.47 l 2
 1003.23 1032.47 1043.83 1018.83 1043.83 905.93 c 0
 1043.83 803.36 966.19 781.71 824.34 781.71 c 2
 718.44 781.71 l 1
719.1 283.05 m 1
 719.1 647.22 l 1
 862.3 647.22 l 1
 1032.51 283.05 l 1
 1238.7 283.05 l 1
 1038.45 674.27 l 1
 1193.35 709.95 1233 810.99 1233 918.92 c 0
 1233 1087.27 1115.66 1179.94 831.7 1179.94 c 2
 532.91 1179.94 l 1
 532.91 283.05 l 1
 719.1 283.05 l 1
EndSplineSet
EndChar

StartChar: ring
Encoding: 730 730 308
Width: 659
VWidth: 0
Flags: W
LayerCount: 2
Fore
SplineSet
329.47 1383.26 m 0
 388.47 1383.26 436.47 1334.6 436.47 1274.6 c 0
 436.47 1214.27 388.47 1164.94 329.47 1164.94 c 0
 271.14 1164.94 223.14 1214.27 223.14 1274.6 c 0
 223.14 1334.6 271.14 1383.26 329.47 1383.26 c 0
330.13 1478 m 0
 214.09 1478 120.39 1392.64 120.39 1274.6 c 0
 120.39 1156.9 214.09 1070.87 330.13 1070.87 c 0
 445.17 1070.87 539.54 1156.9 539.54 1274.6 c 0
 539.54 1392.64 445.17 1478 330.13 1478 c 0
EndSplineSet
EndChar

StartChar: s
Encoding: 115 115 309
Width: 999
VWidth: 0
Flags: W
LayerCount: 2
Fore
SplineSet
533.8 -22.67 m 0
 323.89 -22.67 177.47 57.24 118.99 103.35 c 1
 175.7 261.2 l 1
 248.12 207.46 383.84 150.19 515.77 150.19 c 0
 621.44 150.19 705.31 181.86 705.31 284.05 c 0
 705.31 362.83 639.85 384.86 469.94 442.83 c 0
 285.51 506.19 125.35 558.51 125.35 760.95 c 0
 125.35 969.33 313.98 1050.66 504.08 1050.66 c 0
 663.53 1050.66 788.65 1006.41 865.5 957.29 c 1
 807.12 806.8 l 1
 755.93 833.23 638.9 880.48 529.69 880.48 c 0
 412.18 880.48 336.56 839.19 337.23 765.61 c 0
 337.9 685.78 394.5 673.42 576.32 609.48 c 0
 765.73 542.45 907.84 491.14 907.84 287.35 c 0
 907.84 56.64 713.43 -22.67 533.8 -22.67 c 0
EndSplineSet
EndChar

StartChar: section
Encoding: 167 167 315
Width: 1084
VWidth: 0
Flags: W
LayerCount: 2
Fore
SplineSet
630.07 558.53 m 1
 667.6 589.15 702.15 634.7 702.15 694.27 c 0
 702.15 790.17 598.1 815.46 491.65 866.83 c 1
 454.47 844.91 387.92 794.95 387.92 729.69 c 0
 387.92 649.11 488.04 619.89 630.07 558.53 c 1
508.76 -69.28 m 0
 407.04 -69.28 295.36 -50.27 196.28 -11.92 c 1
 195.62 164.63 l 1
 290.27 124.32 408 99.29 500.4 99.29 c 0
 615.56 99.29 692.53 152.81 692.53 237.13 c 0
 693.19 305.32 615.3 340.6 396.89 442.99 c 1
 262.94 504.64 179.95 591.36 179.95 712.33 c 0
 179.95 813.6 250.5 899.26 344.08 949.31 c 1
 260.14 1008.64 203.94 1081.61 203.94 1191.58 c 0
 203.94 1389.31 379.29 1484.63 589.96 1484.63 c 0
 681.32 1484.63 769.44 1469.3 859.16 1439.94 c 1
 859.16 1270.43 l 1
 798.17 1290.05 695.18 1323.77 611.08 1323.77 c 0
 513.2 1323.77 428.24 1282.53 428.24 1201.61 c 0
 428.24 1133 498.97 1077.33 650.89 1009.35 c 1
 798.83 938.67 923.51 865.68 923.51 721.67 c 0
 923.51 621.39 859.25 542.08 772.3 479.73 c 1
 857.58 432.74 916.5 353.42 916.5 244.12 c 0
 916.5 34.37 730.13 -69.28 508.76 -69.28 c 0
EndSplineSet
EndChar

StartChar: semicolon
Encoding: 59 59 316
Width: 541
VWidth: 0
Flags: W
LayerCount: 2
Fore
SplineSet
81.24 -245.28 m 1
 188.58 241.84 l 1
 429.51 241.84 l 1
 257.8 -245.28 l 1
 81.24 -245.28 l 1
171.73 866.46 m 1
 171.73 1111.3 l 1
 408.83 1111.3 l 1
 408.83 866.46 l 1
 171.73 866.46 l 1
EndSplineSet
EndChar

StartChar: seven
Encoding: 55 55 317
Width: 1248
VWidth: 0
Flags: W
LayerCount: 2
Fore
SplineSet
334.21 0 m 1
 873.56 1274.82 l 1
 157.93 1274.82 l 1
 157.93 1456 l 1
 1123.85 1456 l 1
 1123.85 1290.81 l 1
 569.12 0 l 1
 334.21 0 l 1
EndSplineSet
EndChar

StartChar: six
Encoding: 54 54 318
Width: 1248
VWidth: 0
Flags: W
LayerCount: 2
Fore
SplineSet
669.12 -23 m 0
 314.76 -23 144.72 267.33 144.72 695.35 c 0
 144.72 1127.01 338.78 1483 721.46 1483 c 0
 868.14 1483 990.17 1437.69 1075.56 1360.95 c 1
 1002.16 1199.76 l 1
 923.1 1262.14 829.11 1295.14 723.13 1295.14 c 0
 517.74 1295.14 401.02 1095.76 377.98 846.59 c 0
 375.64 825.24 374.97 802.22 374.3 779.87 c 1
 447.69 888.25 555.36 949.75 699.4 949.75 c 0
 969.53 949.75 1155.85 763.73 1155.85 470.7 c 0
 1155.85 189.68 969.48 -23 669.12 -23 c 0
667.75 164.2 m 0
 830.97 164.2 930.28 295.14 930.28 466.71 c 0
 930.28 637.62 845 771.22 672.15 771.22 c 0
 502.86 771.22 390.29 651.54 390.29 487.21 c 0
 390.29 285.07 509.04 164.2 667.75 164.2 c 0
EndSplineSet
EndChar

StartChar: slash
Encoding: 47 47 319
Width: 911
VWidth: 0
Flags: W
LayerCount: 2
Fore
SplineSet
72.7 -133.03 m 1
 658.04 1456 l 1
 855.19 1456 l 1
 265.18 -133.03 l 1
 72.7 -133.03 l 1
EndSplineSet
EndChar

StartChar: sterling
Encoding: 163 163 321
Width: 1225
VWidth: 0
Flags: W
LayerCount: 2
Fore
SplineSet
148.34 0 m 1
 148.34 165.47 l 1
 241.55 241.11 332.35 355.79 332.35 604.12 c 2
 332.35 670.57 l 1
 144.04 670.57 l 1
 144.04 829.42 l 1
 330.01 829.42 l 1
 330.01 919.15 l 2
 330.01 1230.23 417.3 1481.35 793.49 1481.35 c 0
 927.46 1481.35 1028.16 1454.06 1101.97 1408.02 c 1
 1046.93 1245.49 l 1
 985.44 1276.87 904.49 1306.83 805.87 1305.51 c 0
 622.27 1303.2 546.24 1196.98 546.24 967.87 c 2
 546.24 829.42 l 1
 897.82 829.42 l 1
 897.82 670.57 l 1
 546.9 670.57 l 1
 546.9 601.11 l 2
 546.9 394.28 500.39 247.3 442.35 177.18 c 1
 1115.28 177.18 l 1
 1115.28 0 l 1
 148.34 0 l 1
EndSplineSet
EndChar

StartChar: summation
Encoding: 8721 8721 322
Width: 1223
VWidth: 0
Flags: W
LayerCount: 2
Fore
SplineSet
98.66 -200.56 m 1
 98.66 -88.42 l 1
 610.66 637.54 l 1
 120 1344.56 l 1
 120 1455.34 l 1
 1117.88 1455.34 l 1
 1117.88 1283.79 l 1
 422.7 1283.79 l 1
 860.31 642.19 l 1
 402.41 -23.66 l 1
 1159.88 -23.66 l 1
 1159.88 -200.56 l 1
 98.66 -200.56 l 1
EndSplineSet
EndChar

StartChar: t
Encoding: 116 116 323
Width: 787
VWidth: 0
Flags: W
LayerCount: 2
Fore
SplineSet
712.24 0.67 m 1
 631.07 0.67 l 2
 349.25 0.67 226.28 66.17 226.28 363.75 c 2
 226.28 884.83 l 1
 19.26 884.83 l 1
 19.26 1026 l 1
 231.64 1026 l 1
 231.64 1279.91 l 1
 437.85 1341.65 l 1
 437.85 1026 l 1
 706.24 1026 l 1
 706.24 884.83 l 1
 437.85 884.83 l 1
 437.85 351.73 l 2
 437.85 185.14 481.58 164.18 712.24 164.18 c 1
 712.24 0.67 l 1
EndSplineSet
EndChar

StartChar: tbar
Encoding: 359 359 324
Width: 772
VWidth: 0
Flags: W
LayerCount: 2
Fore
SplineSet
54.43 545.35 m 1
 54.43 705.13 l 1
 675.39 705.13 l 1
 675.39 545.35 l 1
 54.43 545.35 l 1
EndSplineSet
Refer: 323 116 N 1 0 0 1 0 0 2
EndChar

StartChar: thorn
Encoding: 254 254 326
Width: 1232
VWidth: 0
Flags: W
LayerCount: 2
Fore
SplineSet
147.95 -408.91 m 1
 147.95 1460.69 l 1
 355.15 1460.69 l 1
 353.81 915.5 l 1
 420.73 1001.71 549.43 1051 656.61 1051 c 0
 975.93 1051 1132.97 809.32 1132.97 525.66 c 0
 1132.97 239.67 975.63 -23 655.94 -23 c 0
 536.73 -23 425.42 22.29 351.81 97.48 c 1
 351.14 -408.91 l 1
 147.95 -408.91 l 1
629.26 147.86 m 0
 825.79 147.86 908.73 324.77 908.73 521 c 0
 908.73 705.57 841.45 878.14 636.6 878.14 c 0
 423.76 878.14 351.81 694.9 351.81 494 c 0
 351.81 295.11 447.06 147.86 629.26 147.86 c 0
EndSplineSet
EndChar

StartChar: three
Encoding: 51 51 327
Width: 1248
VWidth: 0
Flags: W
LayerCount: 2
Fore
SplineSet
597.83 -23 m 0
 338.53 -23 179.56 85.11 173.62 88.74 c 1
 237.38 256.89 l 1
 257.84 246 405.95 164.2 573.04 164.2 c 0
 757.36 164.2 873.23 259.49 873.23 415.39 c 0
 873.23 596.94 716.87 673.23 476.21 669.21 c 2
 408.24 667.87 l 1
 406.24 852.74 l 1
 473.27 852.74 l 2
 715.69 852.74 835.54 911.06 835.54 1102.3 c 0
 835.54 1233.52 699.59 1296.79 564.03 1296.79 c 0
 398.69 1296.79 298.08 1222.43 239.15 1176.56 c 1
 140.39 1327.77 l 1
 262.85 1432.03 382.98 1483 591.74 1483 c 0
 824.78 1483 1053.13 1357.02 1053.13 1106.64 c 0
 1053.13 946.07 966.84 802.94 785.43 765.33 c 1
 978.12 728.01 1088.12 588.63 1088.12 407.7 c 0
 1088.12 138 865.43 -23 597.83 -23 c 0
EndSplineSet
EndChar

StartChar: threesuperior
Encoding: 179 179 328
Width: 1040
VWidth: 0
Flags: W
LayerCount: 2
Fore
SplineSet
539.17 597.39 m 0
 439.82 597.39 336.45 630.39 260.39 692.38 c 1
 321.06 808.48 l 1
 395.49 756.14 468.49 731.82 528.14 731.82 c 0
 618.11 731.82 675.72 782.49 675.72 860.45 c 0
 675.72 937.68 606.79 979.71 493.55 979.71 c 2
 416.78 979.71 l 1
 416.78 1110.44 l 1
 489.23 1110.44 l 2
 583.46 1110.44 652.73 1147.14 652.73 1217.37 c 0
 652.73 1289.34 602.39 1322.67 525.75 1322.67 c 0
 460.78 1322.67 384.1 1297.03 313.7 1251.37 c 1
 254.36 1362.11 l 1
 337.47 1420.1 447.49 1454.4 545.84 1454.4 c 0
 691.2 1454.4 813.2 1381.78 813.2 1233.77 c 0
 813.2 1165.82 783.24 1089.15 666.92 1055.45 c 1
 791.28 1024.76 839.56 942.73 839.56 857.45 c 0
 839.56 684.35 700.17 597.39 539.17 597.39 c 0
EndSplineSet
EndChar

StartChar: tilde
Encoding: 732 732 329
Width: 698
VWidth: 0
Flags: W
LayerCount: 2
Fore
SplineSet
3.3 1161.52 m 1
 3.3 1316.3 80.71 1423.05 202.09 1423.05 c 0
 309.83 1423.05 422.15 1324.71 487.09 1320.69 c 0
 529.41 1318.01 552.84 1338.59 555.48 1423.05 c 1
 694.97 1423.05 l 1
 694.97 1250.18 620.53 1153.55 494.14 1156.52 c 0
 404.42 1158.5 277.73 1259.88 210.77 1259.88 c 0
 173.85 1259.88 146.46 1229.91 139.46 1161.52 c 1
 3.3 1161.52 l 1
EndSplineSet
EndChar

StartChar: trademark
Encoding: 8482 8482 330
Width: 1869
VWidth: 0
Flags: W
LayerCount: 2
Fore
SplineSet
814.31 658.84 m 1
 814.31 1434.56 l 1
 1008.83 1434.56 l 1
 1253.71 897.16 l 1
 1501.87 1434.56 l 1
 1693.09 1434.56 l 1
 1693.09 658.84 l 1
 1532.54 658.84 l 1
 1532.54 1172.45 l 1
 1303.11 658.84 l 1
 1200.65 658.84 l 1
 971.18 1165.42 l 1
 971.18 658.84 l 1
 814.31 658.84 l 1
304.91 658.84 m 1
 304.91 1294.03 l 1
 72.01 1294.03 l 1
 72.01 1434.56 l 1
 707.33 1434.56 l 1
 707.33 1294.03 l 1
 469.11 1294.03 l 1
 469.11 658.84 l 1
 304.91 658.84 l 1
EndSplineSet
EndChar

StartChar: two
Encoding: 50 50 331
Width: 1248
VWidth: 0
Flags: W
LayerCount: 2
Fore
SplineSet
207.2 0 m 1
 207.2 167.77 l 1
 442.95 373.8 856.66 716.65 823.53 1062.39 c 1
 808.81 1226.6 712.52 1295.8 582.65 1295.8 c 0
 391.43 1295.8 219.3 1168.13 218.63 1168.13 c 2
 147.21 1339.65 l 1
 147.21 1339.65 328.29 1481.66 598.36 1481.66 c 0
 842.07 1481.66 1019.72 1333.02 1036.09 1062.32 c 0
 1064.17 611.51 560.29 265.66 469.21 181.18 c 1
 1031.72 181.18 l 1
 1031.72 0 l 1
 207.2 0 l 1
EndSplineSet
EndChar

StartChar: twosuperior
Encoding: 178 178 332
Width: 1127
VWidth: 0
Flags: W
LayerCount: 2
Fore
SplineSet
278.78 615.98 m 1
 278.78 760.48 l 1
 588.78 1018.65 685.39 1134.09 685.39 1212.93 c 0
 685.39 1278.59 637.08 1310.86 565.49 1310.86 c 0
 491.2 1310.86 408.44 1272.92 345.65 1215.37 c 1
 274.05 1340.27 l 1
 352.88 1417.45 464.59 1460.69 576.18 1460.69 c 0
 731.54 1460.69 857.94 1379.39 857.94 1214.93 c 0
 857.94 1049.63 701.63 915.68 521.75 773.51 c 1
 850.24 773.51 l 1
 850.24 615.98 l 1
 278.78 615.98 l 1
EndSplineSet
EndChar

StartChar: u
Encoding: 117 117 333
Width: 1211
VWidth: 0
Flags: W
LayerCount: 2
Fore
SplineSet
541.23 -22.67 m 0
 268.05 -22.67 143.92 153.18 143.92 384.94 c 2
 143.92 1026 l 1
 354.82 1026 l 1
 354.82 386.62 l 2
 354.82 226.09 438.79 149.52 581.63 149.52 c 0
 746.5 149.52 837.05 243.34 837.05 414.31 c 2
 837.05 1026 l 1
 1049.29 1026 l 1
 1049.29 263.42 l 2
 1049.29 194.85 1057.32 27.72 1059.3 0 c 1
 840.72 0 l 1
 837.05 158.29 l 1
 802.2 84.46 712.95 -22.67 541.23 -22.67 c 0
EndSplineSet
EndChar

StartChar: underscore
Encoding: 95 95 341
Width: 971
VWidth: 0
Flags: W
LayerCount: 2
Fore
SplineSet
-8.7 -262.28 m 1
 -8.7 -95.42 l 1
 980.3 -95.42 l 1
 980.3 -262.28 l 1
 -8.7 -262.28 l 1
EndSplineSet
EndChar

StartChar: uni007F
Encoding: 127 127 343
Width: 1521
VWidth: 0
Flags: W
LayerCount: 2
Fore
SplineSet
188 0 m 1
 188 1456 l 1
 1333 1456 l 1
 1333 0 l 1
 188 0 l 1
360 1330 m 1
 360 124 l 1
 1161 124 l 1
 1161 1330 l 1
 360 1330 l 1
EndSplineSet
EndChar

StartChar: uni00AD
Encoding: 173 173 345
Width: 728
VWidth: 0
Flags: W
LayerCount: 2
Fore
SplineSet
55.55 1191.71 m 1
 55.22 1350.5 l 1
 657.04 1350.5 l 1
 657.37 1191.71 l 1
 55.55 1191.71 l 1
EndSplineSet
EndChar

StartChar: uni0311
Encoding: 785 785 381
Width: 629
VWidth: 0
Flags: W
LayerCount: 2
Fore
SplineSet
32 1218 m 1
 45 1379 151 1456 316 1456 c 0
 473 1456 584 1376 596 1218 c 1
 510 1218 l 1
 488 1309 398 1347 310 1347 c 0
 222 1347 136 1314 120 1218 c 1
 32 1218 l 1
EndSplineSet
EndChar

StartChar: uni2015
Encoding: 8213 8213 396
Width: 4096
VWidth: 0
Flags: W
LayerCount: 2
Fore
SplineSet
58.64 468.23 m 1
 58.64 634.71 l 1
 4037.36 634.71 l 1
 4037.36 468.23 l 1
 58.64 468.23 l 1
EndSplineSet
EndChar

StartChar: uni2206
Encoding: 8710 8710 397
Width: 1310
VWidth: 0
Flags: W
LayerCount: 2
Fore
SplineSet
39.33 0 m 1
 1267.69 0 l 1
 1267.69 95.41 l 1
 749.18 1410.91 l 1
 558.84 1410.91 l 1
 39.33 95.41 l 1
 39.33 0 l 1
315.13 185.97 m 1
 378.78 366.87 584.98 892.84 648.63 1074.41 c 1
 716.97 889.49 918.87 369.55 987.21 185.97 c 1
 315.13 185.97 l 1
EndSplineSet
EndChar

StartChar: v
Encoding: 118 118 401
Width: 1084
VWidth: 0
Flags: W
LayerCount: 2
Fore
SplineSet
443.05 0 m 1
 12.37 1026 l 1
 246.32 1026 l 1
 473.75 432.83 l 1
 550.82 227 l 1
 623.89 432.83 l 1
 844.98 1026 l 1
 1072.92 1026 l 1
 641.23 0 l 1
 443.05 0 l 1
EndSplineSet
EndChar

StartChar: w
Encoding: 119 119 402
Width: 1655
VWidth: 0
Flags: W
LayerCount: 2
Fore
SplineSet
564.87 0 m 1
 783.74 620.26 l 1
 832.08 757.93 l 1
 877.08 619.27 l 1
 1082.96 0 l 1
 1270.42 0 l 1
 1632.6 1026 l 1
 1431.07 1026 l 1
 1230.1 372.76 l 1
 1192.73 252.67 l 1
 1153.03 375.11 l 1
 943.19 1026 l 1
 748.38 1026 l 1
 532.9 386.55 l 1
 488.5 254.34 l 1
 444.76 393.21 l 1
 248.21 1026 l 1
 22.62 1026 l 1
 376.74 0 l 1
 564.87 0 l 1
EndSplineSet
EndChar

StartChar: x
Encoding: 120 120 407
Width: 1053
VWidth: 0
Flags: W
LayerCount: 2
Fore
SplineSet
26.93 0 m 1
 409.15 506.62 l 1
 47.57 1026.66 l 1
 281.84 1026 l 1
 528.64 666.19 l 1
 797.79 1026 l 1
 1020.34 1026 l 1
 648.76 528.04 l 1
 1025.98 0 l 1
 793.04 0 l 1
 529.61 369.46 l 1
 252.16 0 l 1
 26.93 0 l 1
EndSplineSet
EndChar

StartChar: y
Encoding: 121 121 408
Width: 1085
VWidth: 0
Flags: W
LayerCount: 2
Fore
SplineSet
229.49 -438.38 m 1
 141.05 -294.22 l 1
 331.34 -226.19 415.36 -137.32 448.02 -33.62 c 1
 463.01 16.05 l 1
 37.28 1026 l 1
 257.86 1026 l 1
 566.12 241.99 l 1
 845.63 1026 l 1
 1060.55 1026 l 1
 645.21 -55.34 l 1
 565.49 -258.8 411.72 -388.03 229.49 -438.38 c 1
EndSplineSet
EndChar

StartChar: yen
Encoding: 165 165 412
Width: 1246
VWidth: 0
Flags: W
LayerCount: 2
Fore
SplineSet
1079.15 265.73 m 1
 162.61 265.73 l 1
 162.61 417.16 l 1
 552.11 417.16 l 1
 552.11 543.29 l 1
 162.61 543.29 l 1
 162.61 699.4 l 1
 1077.81 699.4 l 1
 1077.81 543.29 l 1
 684.88 543.29 l 1
 684.88 417.16 l 1
 1079.15 417.16 l 1
 1079.15 265.73 l 1
EndSplineSet
Refer: 113 89 N 1 0 0 1 0 0 2
EndChar

StartChar: z
Encoding: 122 122 414
Width: 981
VWidth: 0
Flags: W
LayerCount: 2
Fore
SplineSet
98.35 0 m 1
 98.35 113.12 l 1
 610.8 854.82 l 1
 113.75 854.82 l 1
 113.75 1026 l 1
 885.45 1026 l 1
 885.45 914.88 l 1
 371.32 170.18 l 1
 908.14 170.18 l 1
 908.14 0 l 1
 98.35 0 l 1
EndSplineSet
EndChar

StartChar: zero
Encoding: 48 48 418
Width: 1248
VWidth: 0
Flags: W
LayerCount: 2
Fore
SplineSet
630.4 164.2 m 0
 833.96 164.2 898.27 407.11 898.27 735.03 c 0
 898.27 1038.79 833.97 1295.14 630.07 1295.14 c 0
 419.83 1295.14 348.57 1039.46 348.57 735.36 c 0
 348.57 407.44 420.16 164.2 630.4 164.2 c 0
626.73 -23 m 0
 297.06 -23 124 286.65 124 736.03 c 0
 124 1202.03 295.72 1483 628.73 1483 c 0
 961.07 1483 1124.82 1192.32 1124.82 735.7 c 0
 1124.82 287.33 961.74 -23 626.73 -23 c 0
EndSplineSet
EndChar
